<?xml version="1.0" encoding="UTF-8"?>
<!--Generator: Apple Native CoreSVG 123-->
<!DOCTYPE svg
PUBLIC "-//W3C//DTD SVG 1.1//EN"
       "http://www.w3.org/Graphics/SVG/1.1/DTD/svg11.dtd">
<svg version="1.1" xmlns="http://www.w3.org/2000/svg" xmlns:xlink="http://www.w3.org/1999/xlink" width="3300" height="2200">
 <!--glyph: "uni10017A.medium", point size: 100.000000, font version: "Version 15.0d7e11", template writer version: "5"-->
 <g id="Notes">
  <rect height="2200" id="artboard" style="fill:white;opacity:1" width="3300" x="0" y="0"/>
  <line id="" style="fill:none;stroke:black;opacity:1;stroke-width:0.5;" x1="263" x2="3036" y1="292" y2="292"/>
  <text style="stroke:none;fill:black;font-family:-apple-system,&quot;SF Pro Display&quot;,&quot;SF Pro Text&quot;,Helvetica,sans-serif;font-weight:bold;" transform="matrix(1 0 0 1 263 322)">Weight/Scale Variations</text>
  <text style="stroke:none;fill:black;font-family:-apple-system,&quot;SF Pro Display&quot;,&quot;SF Pro Text&quot;,Helvetica,sans-serif;text-anchor:middle;" transform="matrix(1 0 0 1 559.711 322)">Ultralight</text>
  <text style="stroke:none;fill:black;font-family:-apple-system,&quot;SF Pro Display&quot;,&quot;SF Pro Text&quot;,Helvetica,sans-serif;text-anchor:middle;" transform="matrix(1 0 0 1 856.422 322)">Thin</text>
  <text style="stroke:none;fill:black;font-family:-apple-system,&quot;SF Pro Display&quot;,&quot;SF Pro Text&quot;,Helvetica,sans-serif;text-anchor:middle;" transform="matrix(1 0 0 1 1153.13 322)">Light</text>
  <text style="stroke:none;fill:black;font-family:-apple-system,&quot;SF Pro Display&quot;,&quot;SF Pro Text&quot;,Helvetica,sans-serif;text-anchor:middle;" transform="matrix(1 0 0 1 1449.84 322)">Regular</text>
  <text style="stroke:none;fill:black;font-family:-apple-system,&quot;SF Pro Display&quot;,&quot;SF Pro Text&quot;,Helvetica,sans-serif;text-anchor:middle;" transform="matrix(1 0 0 1 1746.56 322)">Medium</text>
  <text style="stroke:none;fill:black;font-family:-apple-system,&quot;SF Pro Display&quot;,&quot;SF Pro Text&quot;,Helvetica,sans-serif;text-anchor:middle;" transform="matrix(1 0 0 1 2043.27 322)">Semibold</text>
  <text style="stroke:none;fill:black;font-family:-apple-system,&quot;SF Pro Display&quot;,&quot;SF Pro Text&quot;,Helvetica,sans-serif;text-anchor:middle;" transform="matrix(1 0 0 1 2339.98 322)">Bold</text>
  <text style="stroke:none;fill:black;font-family:-apple-system,&quot;SF Pro Display&quot;,&quot;SF Pro Text&quot;,Helvetica,sans-serif;text-anchor:middle;" transform="matrix(1 0 0 1 2636.69 322)">Heavy</text>
  <text style="stroke:none;fill:black;font-family:-apple-system,&quot;SF Pro Display&quot;,&quot;SF Pro Text&quot;,Helvetica,sans-serif;text-anchor:middle;" transform="matrix(1 0 0 1 2933.4 322)">Black</text>
  <line id="" style="fill:none;stroke:black;opacity:1;stroke-width:0.5;" x1="263" x2="3036" y1="1903" y2="1903"/>
  <g id="" transform="matrix(1 0 0 1 263 1933)">
   <path d="M 9.24805 0.830078 C 13.5547 0.830078 17.1387 -2.74414 17.1387 -7.05078 C 17.1387 -11.3574 13.5449 -14.9316 9.23828 -14.9316 C 4.94141 -14.9316 1.36719 -11.3574 1.36719 -7.05078 C 1.36719 -2.74414 4.95117 0.830078 9.24805 0.830078 Z M 9.24805 -0.654297 C 5.70312 -0.654297 2.87109 -3.49609 2.87109 -7.05078 C 2.87109 -10.6055 5.69336 -13.4473 9.23828 -13.4473 C 12.793 -13.4473 15.6348 -10.6055 15.6445 -7.05078 C 15.6543 -3.49609 12.8027 -0.654297 9.24805 -0.654297 Z M 9.22852 -3.42773 C 9.69727 -3.42773 9.9707 -3.74023 9.9707 -4.25781 L 9.9707 -6.31836 L 12.1973 -6.31836 C 12.6953 -6.31836 13.0371 -6.57227 13.0371 -7.04102 C 13.0371 -7.51953 12.7148 -7.7832 12.1973 -7.7832 L 9.9707 -7.7832 L 9.9707 -10.0098 C 9.9707 -10.5273 9.69727 -10.8496 9.22852 -10.8496 C 8.75977 -10.8496 8.50586 -10.5078 8.50586 -10.0098 L 8.50586 -7.7832 L 6.29883 -7.7832 C 5.78125 -7.7832 5.44922 -7.51953 5.44922 -7.04102 C 5.44922 -6.57227 5.80078 -6.31836 6.29883 -6.31836 L 8.50586 -6.31836 L 8.50586 -4.25781 C 8.50586 -3.75977 8.75977 -3.42773 9.22852 -3.42773 Z"/>
  </g>
  <g id="" transform="matrix(1 0 0 1 281.506 1933)">
   <path d="M 11.709 2.91016 C 17.1582 2.91016 21.6699 -1.60156 21.6699 -7.05078 C 21.6699 -12.4902 17.1484 -17.0117 11.6992 -17.0117 C 6.25977 -17.0117 1.74805 -12.4902 1.74805 -7.05078 C 1.74805 -1.60156 6.26953 2.91016 11.709 2.91016 Z M 11.709 1.25 C 7.09961 1.25 3.41797 -2.44141 3.41797 -7.05078 C 3.41797 -11.6504 7.08984 -15.3516 11.6992 -15.3516 C 16.3086 -15.3516 20 -11.6504 20.0098 -7.05078 C 20.0195 -2.44141 16.3184 1.25 11.709 1.25 Z M 11.6895 -2.41211 C 12.207 -2.41211 12.5195 -2.77344 12.5195 -3.33984 L 12.5195 -6.23047 L 15.5762 -6.23047 C 16.123 -6.23047 16.5039 -6.51367 16.5039 -7.03125 C 16.5039 -7.55859 16.1426 -7.86133 15.5762 -7.86133 L 12.5195 -7.86133 L 12.5195 -10.9277 C 12.5195 -11.5039 12.207 -11.8555 11.6895 -11.8555 C 11.1719 -11.8555 10.8789 -11.4844 10.8789 -10.9277 L 10.8789 -7.86133 L 7.83203 -7.86133 C 7.26562 -7.86133 6.89453 -7.55859 6.89453 -7.03125 C 6.89453 -6.51367 7.28516 -6.23047 7.83203 -6.23047 L 10.8789 -6.23047 L 10.8789 -3.33984 C 10.8789 -2.79297 11.1719 -2.41211 11.6895 -2.41211 Z"/>
  </g>
  <g id="" transform="matrix(1 0 0 1 304.924 1933)">
   <path d="M 14.9707 5.67383 C 21.9336 5.67383 27.6953 -0.078125 27.6953 -7.04102 C 27.6953 -14.0039 21.9238 -19.7559 14.9609 -19.7559 C 8.00781 -19.7559 2.25586 -14.0039 2.25586 -7.04102 C 2.25586 -0.078125 8.01758 5.67383 14.9707 5.67383 Z M 14.9707 3.85742 C 8.93555 3.85742 4.08203 -1.00586 4.08203 -7.04102 C 4.08203 -13.0762 8.92578 -17.9395 14.9609 -17.9395 C 21.0059 -17.9395 25.8594 -13.0762 25.8691 -7.04102 C 25.8789 -1.00586 21.0156 3.85742 14.9707 3.85742 Z M 14.9512 -1.06445 C 15.5176 -1.06445 15.8691 -1.45508 15.8691 -2.06055 L 15.8691 -6.13281 L 20.1074 -6.13281 C 20.6934 -6.13281 21.1133 -6.46484 21.1133 -7.02148 C 21.1133 -7.59766 20.7227 -7.93945 20.1074 -7.93945 L 15.8691 -7.93945 L 15.8691 -12.1875 C 15.8691 -12.8027 15.5176 -13.1934 14.9512 -13.1934 C 14.3848 -13.1934 14.0625 -12.7832 14.0625 -12.1875 L 14.0625 -7.93945 L 9.83398 -7.93945 C 9.21875 -7.93945 8.80859 -7.59766 8.80859 -7.02148 C 8.80859 -6.46484 9.23828 -6.13281 9.83398 -6.13281 L 14.0625 -6.13281 L 14.0625 -2.06055 C 14.0625 -1.47461 14.3848 -1.06445 14.9512 -1.06445 Z"/>
  </g>
  <text style="stroke:none;fill:black;font-family:-apple-system,&quot;SF Pro Display&quot;,&quot;SF Pro Text&quot;,Helvetica,sans-serif;font-weight:bold;" transform="matrix(1 0 0 1 263 1953)">Design Variations</text>
  <text style="stroke:none;fill:black;font-family:-apple-system,&quot;SF Pro Display&quot;,&quot;SF Pro Text&quot;,Helvetica,sans-serif;" transform="matrix(1 0 0 1 263 1971)">Symbols are supported in up to nine weights and three scales.</text>
  <text style="stroke:none;fill:black;font-family:-apple-system,&quot;SF Pro Display&quot;,&quot;SF Pro Text&quot;,Helvetica,sans-serif;" transform="matrix(1 0 0 1 263 1989)">For optimal layout with text and other symbols, vertically align</text>
  <text style="stroke:none;fill:black;font-family:-apple-system,&quot;SF Pro Display&quot;,&quot;SF Pro Text&quot;,Helvetica,sans-serif;" transform="matrix(1 0 0 1 263 2007)">symbols with the adjacent text.</text>
  <rect height="14" id="" style="fill:#00AEEF;stroke:none;opacity:0.4;" width="3" x="776" y="1919"/>
  <g id="" transform="matrix(1 0 0 1 779 1933)">
   <path d="M 10.5273 0 L 12.373 0 L 7.17773 -14.0918 L 5.43945 -14.0918 L 0.244141 0 L 2.08984 0 L 3.50586 -4.0332 L 9.11133 -4.0332 Z M 6.2793 -11.9531 L 6.33789 -11.9531 L 8.59375 -5.52734 L 4.02344 -5.52734 Z"/>
  </g>
  <rect height="14" id="" style="fill:#00AEEF;stroke:none;opacity:0.4;" width="3" x="791.617" y="1919"/>
  <text style="stroke:none;fill:black;font-family:-apple-system,&quot;SF Pro Display&quot;,&quot;SF Pro Text&quot;,Helvetica,sans-serif;font-weight:bold;" transform="matrix(1 0 0 1 776 1953)">Margins</text>
  <text style="stroke:none;fill:black;font-family:-apple-system,&quot;SF Pro Display&quot;,&quot;SF Pro Text&quot;,Helvetica,sans-serif;" transform="matrix(1 0 0 1 776 1971)">Leading and trailing margins on the left and right side of each symbol</text>
  <text style="stroke:none;fill:black;font-family:-apple-system,&quot;SF Pro Display&quot;,&quot;SF Pro Text&quot;,Helvetica,sans-serif;" transform="matrix(1 0 0 1 776 1989)">can be adjusted by modifying the width of the blue rectangles.</text>
  <text style="stroke:none;fill:black;font-family:-apple-system,&quot;SF Pro Display&quot;,&quot;SF Pro Text&quot;,Helvetica,sans-serif;" transform="matrix(1 0 0 1 776 2007)">Modifications are automatically applied proportionally to all</text>
  <text style="stroke:none;fill:black;font-family:-apple-system,&quot;SF Pro Display&quot;,&quot;SF Pro Text&quot;,Helvetica,sans-serif;" transform="matrix(1 0 0 1 776 2025)">scales and weights.</text>
  <g id="" transform="matrix(1 0 0 1 1289 1933)">
   <path d="M 2.83203 3.11523 L 4.375 4.6582 C 5.22461 5.48828 6.19141 5.41992 7.06055 4.46289 L 17.2754 -6.66016 C 17.7051 -6.36719 18.0957 -6.37695 18.5645 -6.47461 L 19.6094 -6.68945 L 20.3027 -5.99609 L 20.2539 -5.47852 C 20.1855 -4.95117 20.3516 -4.53125 20.8496 -4.0332 L 21.6602 -3.22266 C 22.168 -2.71484 22.8223 -2.68555 23.3008 -3.16406 L 26.5527 -6.41602 C 27.0312 -6.89453 27.0117 -7.54883 26.5039 -8.05664 L 25.6836 -8.87695 C 25.1855 -9.375 24.7754 -9.55078 24.2383 -9.47266 L 23.7109 -9.41406 L 23.0566 -10.0781 L 23.3398 -11.2207 C 23.4863 -11.7871 23.3398 -12.2559 22.7148 -12.8613 L 20.3027 -15.2539 C 16.7578 -18.7793 12.2266 -18.6719 9.11133 -15.5371 C 8.69141 -15.1074 8.64258 -14.5215 8.91602 -14.0918 C 9.15039 -13.7207 9.62891 -13.4961 10.2734 -13.6621 C 11.7871 -14.043 13.3008 -13.9258 14.7852 -12.9199 L 14.1602 -11.3379 C 13.9258 -10.752 13.9453 -10.2734 14.1797 -9.83398 L 3.01758 0.439453 C 2.08008 1.30859 1.97266 2.25586 2.83203 3.11523 Z M 10.6738 -15.1465 C 13.3398 -17.1387 16.6504 -16.8262 19.0527 -14.4141 L 21.6797 -11.8066 C 21.9141 -11.5723 21.9434 -11.3867 21.8848 -11.0938 L 21.5039 -9.53125 L 23.0762 -7.95898 L 24.043 -8.04688 C 24.3262 -8.07617 24.4141 -8.05664 24.6387 -7.83203 L 25.2637 -7.20703 L 22.5098 -4.46289 L 21.8848 -5.07812 C 21.6602 -5.30273 21.6406 -5.40039 21.6699 -5.68359 L 21.7578 -6.64062 L 20.1953 -8.20312 L 18.5742 -7.89062 C 18.291 -7.83203 18.1445 -7.83203 17.9102 -8.07617 L 15.7324 -10.2539 C 15.5078 -10.4883 15.4785 -10.625 15.6055 -10.9473 L 16.5527 -13.2227 C 14.9512 -14.7559 12.8418 -15.6055 10.8008 -14.9512 C 10.7129 -14.9219 10.6445 -14.9414 10.6152 -14.9805 C 10.5859 -15.0293 10.5859 -15.0781 10.6738 -15.1465 Z M 4.10156 2.41211 C 3.61328 1.91406 3.78906 1.61133 4.12109 1.30859 L 15.0781 -8.80859 L 16.3086 -7.57812 L 6.15234 3.34961 C 5.84961 3.68164 5.46875 3.7793 5.06836 3.37891 Z"/>
  </g>
  <text style="stroke:none;fill:black;font-family:-apple-system,&quot;SF Pro Display&quot;,&quot;SF Pro Text&quot;,Helvetica,sans-serif;font-weight:bold;" transform="matrix(1 0 0 1 1289 1953)">Exporting</text>
  <text style="stroke:none;fill:black;font-family:-apple-system,&quot;SF Pro Display&quot;,&quot;SF Pro Text&quot;,Helvetica,sans-serif;" transform="matrix(1 0 0 1 1289 1971)">Symbols should be outlined when exporting to ensure the</text>
  <text style="stroke:none;fill:black;font-family:-apple-system,&quot;SF Pro Display&quot;,&quot;SF Pro Text&quot;,Helvetica,sans-serif;" transform="matrix(1 0 0 1 1289 1989)">design is preserved when submitting to Xcode.</text>
  <text id="template-version" style="stroke:none;fill:black;font-family:-apple-system,&quot;SF Pro Display&quot;,&quot;SF Pro Text&quot;,Helvetica,sans-serif;text-anchor:end;" transform="matrix(1 0 0 1 3036 1933)">Template v.1.0</text>
  <text style="stroke:none;fill:black;font-family:-apple-system,&quot;SF Pro Display&quot;,&quot;SF Pro Text&quot;,Helvetica,sans-serif;text-anchor:end;" transform="matrix(1 0 0 1 3036 1951)">Generated from plus.slash.minus</text>
  <text style="stroke:none;fill:black;font-family:-apple-system,&quot;SF Pro Display&quot;,&quot;SF Pro Text&quot;,Helvetica,sans-serif;text-anchor:end;" transform="matrix(1 0 0 1 3036 1969)">Typeset at 100 points</text>
  <text style="stroke:none;fill:black;font-family:-apple-system,&quot;SF Pro Display&quot;,&quot;SF Pro Text&quot;,Helvetica,sans-serif;" transform="matrix(1 0 0 1 263 726)">Small</text>
  <text style="stroke:none;fill:black;font-family:-apple-system,&quot;SF Pro Display&quot;,&quot;SF Pro Text&quot;,Helvetica,sans-serif;" transform="matrix(1 0 0 1 263 1156)">Medium</text>
  <text style="stroke:none;fill:black;font-family:-apple-system,&quot;SF Pro Display&quot;,&quot;SF Pro Text&quot;,Helvetica,sans-serif;" transform="matrix(1 0 0 1 263 1586)">Large</text>
 </g>
 <g id="Guides">
  <g id="H-reference" style="fill:#27AAE1;stroke:none;" transform="matrix(1 0 0 1 339 696)">
   <path d="M 54.9316 0 L 57.666 0 L 30.5664 -70.459 L 28.0762 -70.459 L 0.976562 0 L 3.66211 0 L 12.9395 -24.4629 L 45.7031 -24.4629 Z M 29.1992 -67.0898 L 29.4434 -67.0898 L 44.8242 -26.709 L 13.8184 -26.709 Z"/>
  </g>
  <line id="Baseline-S" style="fill:none;stroke:#27AAE1;opacity:1;stroke-width:0.577;" x1="263" x2="3036" y1="696" y2="696"/>
  <line id="Capline-S" style="fill:none;stroke:#27AAE1;opacity:1;stroke-width:0.577;" x1="263" x2="3036" y1="625.541" y2="625.541"/>
  <g id="H-reference" style="fill:#27AAE1;stroke:none;" transform="matrix(1 0 0 1 339 1126)">
   <path d="M 54.9316 0 L 57.666 0 L 30.5664 -70.459 L 28.0762 -70.459 L 0.976562 0 L 3.66211 0 L 12.9395 -24.4629 L 45.7031 -24.4629 Z M 29.1992 -67.0898 L 29.4434 -67.0898 L 44.8242 -26.709 L 13.8184 -26.709 Z"/>
  </g>
  <line id="Baseline-M" style="fill:none;stroke:#27AAE1;opacity:1;stroke-width:0.577;" x1="263" x2="3036" y1="1126" y2="1126"/>
  <line id="Capline-M" style="fill:none;stroke:#27AAE1;opacity:1;stroke-width:0.577;" x1="263" x2="3036" y1="1055.54" y2="1055.54"/>
  <g id="H-reference" style="fill:#27AAE1;stroke:none;" transform="matrix(1 0 0 1 339 1556)">
   <path d="M 54.9316 0 L 57.666 0 L 30.5664 -70.459 L 28.0762 -70.459 L 0.976562 0 L 3.66211 0 L 12.9395 -24.4629 L 45.7031 -24.4629 Z M 29.1992 -67.0898 L 29.4434 -67.0898 L 44.8242 -26.709 L 13.8184 -26.709 Z"/>
  </g>
  <line id="Baseline-L" style="fill:none;stroke:#27AAE1;opacity:1;stroke-width:0.577;" x1="263" x2="3036" y1="1556" y2="1556"/>
  <line id="Capline-L" style="fill:none;stroke:#27AAE1;opacity:1;stroke-width:0.577;" x1="263" x2="3036" y1="1485.54" y2="1485.54"/>
  <rect height="119.336" id="left-margin" style="fill:#00AEEF;stroke:none;opacity:0.4;" width="12.4512" x="1391.37" y="1030.79"/>
  <rect height="119.336" id="right-margin" style="fill:#00AEEF;stroke:none;opacity:0.4;" width="12.4512" x="1495.86" y="1030.79"/>
 </g>
 <g id="Symbols">
  <g id="Black-L" transform="matrix(1 0 0 1 2854.88 1556)">
   <path d="M 43.6035 24.5605 C 47.0703 24.5605 49.1211 23.2422 51.6602 19.5312 L 87.0605 -33.1543 L 120.117 -81.8848 C 121.387 -83.7891 122.119 -85.5957 122.119 -87.5488 C 122.119 -91.9434 118.604 -95.0684 114.16 -95.0684 C 110.059 -95.0684 108.008 -93.6035 105.469 -89.8438 L 71.3867 -38.9648 L 37.1582 11.3281 C 35.9375 13.0859 35.1562 14.6973 35.1562 17.1875 C 35.1562 21.7773 39.2578 24.5605 43.6035 24.5605 Z M 33.5938 -55.6641 L 33.5938 -45.3125 C 33.5938 -40.1367 36.4258 -37.2559 41.1621 -37.2559 C 45.9473 -37.2559 48.7793 -40.1367 48.7793 -45.3125 L 48.7793 -55.6641 L 58.5938 -55.6641 C 63.5742 -55.6641 66.3086 -58.4961 66.3086 -62.9395 C 66.3086 -67.627 63.5742 -70.3125 58.5938 -70.3125 L 48.7793 -70.3125 L 48.7793 -80.6641 C 48.7793 -85.8398 45.9473 -88.7207 41.1621 -88.7207 C 36.4258 -88.7207 33.5938 -85.8398 33.5938 -80.6641 L 33.5938 -70.3125 L 23.8281 -70.3125 C 18.8477 -70.3125 16.0645 -67.627 16.0645 -62.9395 C 16.0645 -58.4961 18.8477 -55.6641 23.8281 -55.6641 Z M 92.041 -3.71094 C 92.041 0.976562 94.9707 3.66211 100.098 3.66211 L 132.959 3.66211 C 137.988 3.66211 140.967 0.976562 140.967 -3.71094 C 140.967 -8.30078 137.988 -11.084 132.959 -11.084 L 100.098 -11.084 C 94.9707 -11.084 92.041 -8.30078 92.041 -3.71094 Z"/>
  </g>
  <g id="Heavy-L" transform="matrix(1 0 0 1 2559.08 1556)">
   <path d="M 42.334 24.4629 C 45.4102 24.4629 47.2656 23.291 49.5117 19.9707 L 85.1562 -33.3008 L 118.896 -83.252 C 120.02 -84.9609 120.654 -86.5723 120.654 -88.3301 C 120.654 -92.1875 117.529 -94.9707 113.623 -94.9707 C 110.01 -94.9707 108.252 -93.75 105.908 -90.2832 L 71.4355 -38.623 L 36.6699 12.6953 C 35.5469 14.3066 34.9121 15.7715 34.9121 17.9688 C 34.9121 21.9727 38.4277 24.4629 42.334 24.4629 Z M 33.4961 -56.6406 L 33.4961 -45.4102 C 33.4961 -40.8691 36.0352 -38.2812 40.2344 -38.2812 C 44.3848 -38.2812 46.9727 -40.8691 46.9727 -45.4102 L 46.9727 -56.6406 L 57.5684 -56.6406 C 62.0117 -56.6406 64.4043 -59.2285 64.4043 -63.1348 C 64.4043 -67.1875 62.0117 -69.6289 57.5684 -69.6289 L 46.9727 -69.6289 L 46.9727 -80.9082 C 46.9727 -85.4492 44.3848 -88.0371 40.2344 -88.0371 C 36.0352 -88.0371 33.4961 -85.4492 33.4961 -80.9082 L 33.4961 -69.6289 L 22.9492 -69.6289 C 18.5547 -69.6289 16.0645 -67.1875 16.0645 -63.1348 C 16.0645 -59.2285 18.5547 -56.6406 22.9492 -56.6406 Z M 92.2363 -3.51562 C 92.2363 0.585938 94.8242 3.02734 99.3652 3.02734 L 132.08 3.02734 C 136.523 3.02734 139.16 0.585938 139.16 -3.51562 C 139.16 -7.51953 136.523 -10.0098 132.08 -10.0098 L 99.3652 -10.0098 C 94.8242 -10.0098 92.2363 -7.51953 92.2363 -3.51562 Z"/>
  </g>
  <g id="Bold-L" transform="matrix(1 0 0 1 2263.39 1556)">
   <path d="M 40.918 24.3652 C 43.5547 24.3652 45.1172 23.3398 47.1191 20.459 L 83.0566 -33.4961 L 117.529 -84.8145 C 118.506 -86.3281 119.043 -87.6465 119.043 -89.209 C 119.043 -92.4805 116.309 -94.873 112.988 -94.873 C 110.01 -94.873 108.496 -93.8477 106.445 -90.8203 L 71.4355 -38.2812 L 36.1328 14.209 C 35.1562 15.6738 34.5703 16.9434 34.5703 18.7988 C 34.5703 22.2168 37.5488 24.3652 40.918 24.3652 Z M 33.4473 -57.8125 L 33.4473 -45.5078 C 33.4473 -41.6504 35.6445 -39.4531 39.1602 -39.4531 C 42.6758 -39.4531 44.873 -41.6504 44.873 -45.5078 L 44.873 -57.8125 L 56.4453 -57.8125 C 60.2051 -57.8125 62.2559 -60.0098 62.2559 -63.3301 C 62.2559 -66.6992 60.2051 -68.8965 56.4453 -68.8965 L 44.873 -68.8965 L 44.873 -81.2012 C 44.873 -85.0586 42.6758 -87.2559 39.1602 -87.2559 C 35.6445 -87.2559 33.4473 -85.0586 33.4473 -81.2012 L 33.4473 -68.8965 L 21.9238 -68.8965 C 18.1641 -68.8965 16.0645 -66.6992 16.0645 -63.3301 C 16.0645 -60.0098 18.1641 -57.8125 21.9238 -57.8125 Z M 92.4805 -3.27148 C 92.4805 0.195312 94.6777 2.34375 98.4863 2.34375 L 131.104 2.34375 C 134.912 2.34375 137.109 0.195312 137.109 -3.27148 C 137.109 -6.64062 134.912 -8.83789 131.104 -8.83789 L 98.4863 -8.83789 C 94.6777 -8.83789 92.4805 -6.64062 92.4805 -3.27148 Z"/>
  </g>
  <g id="Semibold-L" transform="matrix(1 0 0 1 1967.36 1556)">
   <path d="M 39.9414 24.3164 C 42.2852 24.3164 43.6523 23.3887 45.459 20.8008 L 81.5918 -33.5938 L 116.553 -85.8887 C 117.48 -87.207 117.92 -88.4277 117.92 -89.7949 C 117.92 -92.6758 115.479 -94.8242 112.598 -94.8242 C 109.961 -94.8242 108.643 -93.9453 106.787 -91.2109 L 71.4844 -38.0371 L 35.7422 15.2832 C 34.8633 16.6016 34.3262 17.7246 34.3262 19.3359 C 34.3262 22.3633 36.9629 24.3164 39.9414 24.3164 Z M 33.3496 -58.5938 L 33.3496 -45.5566 C 33.3496 -42.1875 35.3516 -40.2344 38.4277 -40.2344 C 41.4551 -40.2344 43.457 -42.1875 43.457 -45.5566 L 43.457 -58.5938 L 55.6641 -58.5938 C 58.9844 -58.5938 60.791 -60.5957 60.791 -63.4766 C 60.791 -66.4062 58.9844 -68.4082 55.6641 -68.4082 L 43.457 -68.4082 L 43.457 -81.4453 C 43.457 -84.8145 41.4551 -86.7676 38.4277 -86.7676 C 35.3516 -86.7676 33.3496 -84.8145 33.3496 -81.4453 L 33.3496 -68.4082 L 21.2402 -68.4082 C 17.9199 -68.4082 16.0645 -66.4062 16.0645 -63.4766 C 16.0645 -60.5957 17.9199 -58.5938 21.2402 -58.5938 Z M 92.627 -3.07617 C 92.627 -0.0976562 94.5312 1.85547 97.9004 1.85547 L 130.42 1.85547 C 133.789 1.85547 135.742 -0.0976562 135.742 -3.07617 C 135.742 -6.00586 133.789 -8.00781 130.42 -8.00781 L 97.9004 -8.00781 C 94.5312 -8.00781 92.627 -6.00586 92.627 -3.07617 Z"/>
  </g>
  <g id="Medium-L" transform="matrix(1 0 0 1 1671.19 1556)">
   <path d="M 39.209 24.2676 C 41.3574 24.2676 42.5293 23.4375 44.1895 21.0938 L 80.5176 -33.6914 L 115.82 -86.6699 C 116.699 -87.9395 117.09 -88.9648 117.09 -90.2832 C 117.09 -92.8223 114.893 -94.7754 112.256 -94.7754 C 109.961 -94.7754 108.74 -93.9941 107.031 -91.4551 L 71.4844 -37.8418 L 35.4492 16.0645 C 34.6191 17.2852 34.1797 18.3594 34.1797 19.7754 C 34.1797 22.5098 36.4746 24.2676 39.209 24.2676 Z M 33.3008 -59.1797 L 33.3008 -45.6055 C 33.3008 -42.627 35.1074 -40.8691 37.8418 -40.8691 C 40.5762 -40.8691 42.3828 -42.627 42.3828 -45.6055 L 42.3828 -59.1797 L 55.0293 -59.1797 C 58.0566 -59.1797 59.668 -60.9863 59.668 -63.5742 C 59.668 -66.1621 58.0566 -68.0176 55.0293 -68.0176 L 42.3828 -68.0176 L 42.3828 -81.5918 C 42.3828 -84.6191 40.5762 -86.377 37.8418 -86.377 C 35.1074 -86.377 33.3008 -84.6191 33.3008 -81.5918 L 33.3008 -68.0176 L 20.7031 -68.0176 C 17.7246 -68.0176 16.0645 -66.1621 16.0645 -63.5742 C 16.0645 -60.9863 17.7246 -59.1797 20.7031 -59.1797 Z M 92.7246 -2.97852 C 92.7246 -0.292969 94.4336 1.46484 97.4609 1.46484 L 129.932 1.46484 C 132.959 1.46484 134.668 -0.292969 134.668 -2.97852 C 134.668 -5.56641 132.959 -7.37305 129.932 -7.37305 L 97.4609 -7.37305 C 94.4336 -7.37305 92.7246 -5.56641 92.7246 -2.97852 Z"/>
  </g>
  <g id="Regular-L" transform="matrix(1 0 0 1 1375.19 1556)">
   <path d="M 38.2812 24.2188 C 40.0879 24.2188 41.1133 23.4863 42.5293 21.4355 L 79.0527 -33.7891 L 114.893 -87.7441 C 115.674 -88.8184 115.967 -89.7461 115.967 -90.8691 C 115.967 -93.0176 114.062 -94.6777 111.865 -94.6777 C 109.912 -94.6777 108.936 -94.0918 107.373 -91.8457 L 71.4844 -37.5977 L 35.0586 17.1387 C 34.3262 18.2129 33.9844 19.1406 33.9844 20.3613 C 33.9844 22.6562 35.8887 24.2188 38.2812 24.2188 Z M 33.252 -59.9609 L 33.252 -45.6543 C 33.252 -43.1641 34.8145 -41.6504 37.1582 -41.6504 C 39.4043 -41.6504 41.0156 -43.1641 41.0156 -45.6543 L 41.0156 -59.9609 L 54.248 -59.9609 C 56.8359 -59.9609 58.2031 -61.5234 58.2031 -63.7207 C 58.2031 -65.8203 56.8359 -67.5293 54.248 -67.5293 L 41.0156 -67.5293 L 41.0156 -81.7871 C 41.0156 -84.3262 39.4043 -85.8398 37.1582 -85.8398 C 34.8145 -85.8398 33.252 -84.3262 33.252 -81.7871 L 33.252 -67.5293 L 19.9707 -67.5293 C 17.4805 -67.5293 16.0645 -65.8203 16.0645 -63.7207 C 16.0645 -61.5234 17.4805 -59.9609 19.9707 -59.9609 Z M 92.8711 -2.7832 C 92.8711 -0.585938 94.3359 0.976562 96.9238 0.976562 L 129.248 0.976562 C 131.836 0.976562 133.252 -0.585938 133.252 -2.7832 C 133.252 -4.93164 131.836 -6.5918 129.248 -6.5918 L 96.9238 -6.5918 C 94.3359 -6.5918 92.8711 -4.93164 92.8711 -2.7832 Z"/>
  </g>
  <g id="Light-L" transform="matrix(1 0 0 1 1079.5 1556)">
   <path d="M 37.3535 24.1211 C 38.7695 24.1211 39.5996 23.5352 40.7227 21.9238 L 76.7578 -33.9844 L 112.451 -89.1113 C 113.086 -90.0391 113.33 -90.7715 113.33 -91.6504 C 113.33 -93.3105 111.865 -94.6289 110.156 -94.6289 C 108.594 -94.6289 107.861 -94.1406 106.641 -92.334 L 70.9473 -37.1094 L 34.9609 18.5059 C 34.3262 19.4336 34.0332 20.166 34.0332 21.1426 C 34.0332 22.9004 35.498 24.1211 37.3535 24.1211 Z M 33.0566 -61.1816 L 33.0566 -46.0449 C 33.0566 -44.1406 34.2285 -42.9199 36.084 -42.9199 C 37.8418 -42.9199 39.0625 -44.1406 39.0625 -46.0449 L 39.0625 -61.1816 L 52.9785 -61.1816 C 54.9805 -61.1816 56.0547 -62.4023 56.0547 -64.1113 C 56.0547 -65.7715 54.9805 -67.041 52.9785 -67.041 L 39.0625 -67.041 L 39.0625 -82.1777 C 39.0625 -84.1309 37.8418 -85.3516 36.084 -85.3516 C 34.2285 -85.3516 33.0566 -84.1309 33.0566 -82.1777 L 33.0566 -67.041 L 19.1406 -67.041 C 17.1875 -67.041 16.0645 -65.7715 16.0645 -64.1113 C 16.0645 -62.4023 17.1875 -61.1816 19.1406 -61.1816 Z M 93.0176 -2.19727 C 93.0176 -0.390625 94.1406 0.78125 96.1426 0.78125 L 128.027 0.78125 C 130.029 0.78125 131.201 -0.390625 131.201 -2.19727 C 131.201 -3.80859 130.029 -5.07812 128.027 -5.07812 L 96.1426 -5.07812 C 94.1406 -5.07812 93.0176 -3.80859 93.0176 -2.19727 Z"/>
  </g>
  <g id="Thin-L" transform="matrix(1 0 0 1 784.181 1556)">
   <path d="M 36.1816 24.0234 C 37.0117 24.0234 37.5977 23.6328 38.3301 22.5586 L 73.6328 -34.2285 L 109.229 -90.918 C 109.668 -91.6016 109.863 -92.0898 109.863 -92.6758 C 109.863 -93.7012 108.984 -94.5801 107.861 -94.5801 C 106.836 -94.5801 106.445 -94.1895 105.664 -93.0176 L 70.2148 -36.4258 L 34.7656 20.3125 C 34.3262 20.9961 34.1309 21.5332 34.1309 22.2168 C 34.1309 23.2422 35.0098 24.0234 36.1816 24.0234 Z M 32.7637 -62.8418 L 32.7637 -46.4844 C 32.7637 -45.4102 33.3984 -44.5801 34.668 -44.5801 C 35.8398 -44.5801 36.4746 -45.4102 36.4746 -46.4844 L 36.4746 -62.8418 L 51.2695 -62.8418 C 52.4902 -62.8418 53.1738 -63.5254 53.1738 -64.6484 C 53.1738 -65.6738 52.4902 -66.4062 51.2695 -66.4062 L 36.4746 -66.4062 L 36.4746 -82.7148 C 36.4746 -83.8867 35.8398 -84.7168 34.668 -84.7168 C 33.3984 -84.7168 32.7637 -83.8867 32.7637 -82.7148 L 32.7637 -66.4062 L 17.9688 -66.4062 C 16.7969 -66.4062 16.0645 -65.6738 16.0645 -64.6484 C 16.0645 -63.5254 16.7969 -62.8418 17.9688 -62.8418 Z M 93.1641 -1.36719 C 93.1641 -0.195312 93.8965 0.439453 95.1172 0.439453 L 126.416 0.439453 C 127.686 0.439453 128.418 -0.195312 128.418 -1.36719 C 128.418 -2.34375 127.686 -3.07617 126.416 -3.07617 L 95.1172 -3.07617 C 93.8965 -3.07617 93.1641 -2.34375 93.1641 -1.36719 Z"/>
  </g>
  <g id="Ultralight-L" transform="matrix(1 0 0 1 488.178 1556)">
   <path d="M 35.5469 23.9746 C 36.1328 23.9746 36.5723 23.6816 37.1094 22.8516 L 72.0703 -34.375 L 107.568 -91.8457 C 107.959 -92.4316 108.105 -92.7734 108.105 -93.1641 C 108.105 -93.8965 107.52 -94.5312 106.689 -94.5312 C 105.957 -94.5312 105.713 -94.2383 105.176 -93.3594 L 69.8242 -36.084 L 34.668 21.2402 C 34.3262 21.8262 34.1797 22.2656 34.1797 22.7539 C 34.1797 23.4375 34.7656 23.9746 35.5469 23.9746 Z M 32.666 -63.6719 L 32.666 -46.7285 C 32.666 -46.0449 33.0078 -45.4102 33.9844 -45.4102 C 34.7656 -45.4102 35.1074 -46.0449 35.1074 -46.7285 L 35.1074 -63.6719 L 50.3906 -63.6719 C 51.2207 -63.6719 51.709 -64.1113 51.709 -64.8926 C 51.709 -65.6738 51.2207 -66.0645 50.3906 -66.0645 L 35.1074 -66.0645 L 35.1074 -83.0078 C 35.1074 -83.7891 34.7656 -84.4238 33.9844 -84.4238 C 33.0078 -84.4238 32.666 -83.7891 32.666 -83.0078 L 32.666 -66.0645 L 17.3828 -66.0645 C 16.6016 -66.0645 16.0645 -65.6738 16.0645 -64.8926 C 16.0645 -64.1113 16.6016 -63.6719 17.3828 -63.6719 Z M 93.2129 -0.976562 C 93.2129 -0.0488281 93.75 0.292969 94.6289 0.292969 L 125.586 0.292969 C 126.465 0.292969 127.002 -0.0488281 127.002 -0.976562 C 127.002 -1.61133 126.465 -2.05078 125.586 -2.05078 L 94.6289 -2.05078 C 93.75 -2.05078 93.2129 -1.61133 93.2129 -0.976562 Z"/>
  </g>
  <g id="Black-M" transform="matrix(1 0 0 1 2871.88 1126)">
   <path d="M 35.0098 11.1816 C 37.9883 11.1816 39.8438 10.0586 41.9434 6.83594 L 68.75 -33.4961 L 93.457 -70.2637 C 94.4824 -71.875 95.2148 -73.4863 95.2148 -75.1465 C 95.2148 -79.0039 92.1875 -81.6895 88.2812 -81.6895 C 84.6191 -81.6895 82.8613 -80.3711 80.7617 -77.1973 L 54.9805 -38.2812 L 29.3945 -0.244141 C 28.3691 1.2207 27.6855 2.63672 27.6855 4.83398 C 27.6855 8.78906 31.2988 11.1816 35.0098 11.1816 Z M 26.0254 -50.3418 L 26.0254 -43.1152 C 26.0254 -38.5742 28.418 -36.084 32.6172 -36.084 C 36.8652 -36.084 39.2578 -38.5742 39.2578 -43.1152 L 39.2578 -50.3418 L 46.0938 -50.3418 C 50.4395 -50.3418 52.832 -52.7344 52.832 -56.6895 C 52.832 -60.8398 50.4395 -63.0371 46.0938 -63.0371 L 39.2578 -63.0371 L 39.2578 -70.2637 C 39.2578 -74.8047 36.8652 -77.3438 32.6172 -77.3438 C 28.418 -77.3438 26.0254 -74.8047 26.0254 -70.2637 L 26.0254 -63.0371 L 19.2383 -63.0371 C 14.8926 -63.0371 12.4512 -60.8398 12.4512 -56.6895 C 12.4512 -52.7344 14.8926 -50.3418 19.2383 -50.3418 Z M 71.1426 -10.7422 C 71.1426 -6.5918 73.7305 -4.3457 78.1738 -4.3457 L 103.564 -4.3457 C 107.959 -4.3457 110.596 -6.5918 110.596 -10.7422 C 110.596 -14.8438 107.959 -17.0898 103.564 -17.0898 L 78.1738 -17.0898 C 73.7305 -17.0898 71.1426 -14.8438 71.1426 -10.7422 Z"/>
  </g>
  <g id="Heavy-M" transform="matrix(1 0 0 1 2575.9 1126)">
   <path d="M 33.8379 11.084 C 36.5234 11.084 38.1348 10.1074 40.0879 7.22656 L 67.334 -33.6426 L 92.7246 -71.4355 C 93.7012 -72.9004 94.2871 -74.2676 94.2871 -75.7812 C 94.2871 -79.1992 91.6016 -81.5918 88.1348 -81.5918 C 84.9609 -81.5918 83.3984 -80.4688 81.4453 -77.5391 L 55.1758 -38.0371 L 28.9062 0.878906 C 27.9785 2.24609 27.3438 3.51562 27.3438 5.41992 C 27.3438 8.93555 30.5176 11.084 33.8379 11.084 Z M 26.0254 -51.123 L 26.0254 -43.1152 C 26.0254 -39.1113 28.1738 -36.8652 31.8848 -36.8652 C 35.5957 -36.8652 37.7441 -39.1113 37.7441 -43.1152 L 37.7441 -51.123 L 45.3125 -51.123 C 49.1699 -51.123 51.3184 -53.3203 51.3184 -56.7871 C 51.3184 -60.4004 49.1699 -62.4512 45.3125 -62.4512 L 37.7441 -62.4512 L 37.7441 -70.459 C 37.7441 -74.4629 35.5957 -76.709 31.8848 -76.709 C 28.1738 -76.709 26.0254 -74.4629 26.0254 -70.459 L 26.0254 -62.4512 L 18.457 -62.4512 C 14.6484 -62.4512 12.4512 -60.4004 12.4512 -56.7871 C 12.4512 -53.3203 14.6484 -51.123 18.457 -51.123 Z M 71.3379 -10.6934 C 71.3379 -7.03125 73.584 -4.98047 77.5391 -4.98047 L 102.93 -4.98047 C 106.836 -4.98047 109.131 -7.03125 109.131 -10.6934 C 109.131 -14.2578 106.836 -16.3574 102.93 -16.3574 L 77.5391 -16.3574 C 73.584 -16.3574 71.3379 -14.2578 71.3379 -10.6934 Z"/>
  </g>
  <g id="Bold-M" transform="matrix(1 0 0 1 2279.99 1126)">
   <path d="M 32.5684 11.0352 C 34.9121 11.0352 36.2793 10.1562 37.9883 7.61719 L 65.6738 -33.7891 L 91.9434 -72.7051 C 92.8223 -73.9746 93.2617 -75.1953 93.2617 -76.5137 C 93.2617 -79.4434 90.918 -81.543 87.9883 -81.543 C 85.3027 -81.543 83.9355 -80.5664 82.1777 -77.9785 L 55.3711 -37.8418 L 28.3203 2.14844 C 27.4902 3.36914 27.002 4.49219 27.002 6.10352 C 27.002 9.13086 29.6387 11.0352 32.5684 11.0352 Z M 25.9766 -52.002 L 25.9766 -43.1152 C 25.9766 -39.6973 27.8809 -37.793 31.0059 -37.793 C 34.1309 -37.793 36.084 -39.6973 36.084 -43.1152 L 36.084 -52.002 L 44.4336 -52.002 C 47.7539 -52.002 49.5605 -53.9551 49.5605 -56.8848 C 49.5605 -59.9121 47.7539 -61.7676 44.4336 -61.7676 L 36.084 -61.7676 L 36.084 -70.7031 C 36.084 -74.1211 34.1309 -76.0254 31.0059 -76.0254 C 27.8809 -76.0254 25.9766 -74.1211 25.9766 -70.7031 L 25.9766 -61.7676 L 17.627 -61.7676 C 14.3066 -61.7676 12.4512 -59.9121 12.4512 -56.8848 C 12.4512 -53.9551 14.3066 -52.002 17.627 -52.002 Z M 71.5332 -10.5957 C 71.5332 -7.51953 73.4863 -5.66406 76.8555 -5.66406 L 102.197 -5.66406 C 105.566 -5.66406 107.52 -7.51953 107.52 -10.5957 C 107.52 -13.623 105.566 -15.5273 102.197 -15.5273 L 76.8555 -15.5273 C 73.4863 -15.5273 71.5332 -13.623 71.5332 -10.5957 Z"/>
  </g>
  <g id="Semibold-M" transform="matrix(1 0 0 1 1983.84 1126)">
   <path d="M 31.6895 10.9863 C 33.7891 10.9863 34.9609 10.1562 36.5234 7.91016 L 64.5508 -33.8379 L 91.4062 -73.584 C 92.1875 -74.7559 92.5781 -75.7812 92.5781 -77.0508 C 92.5781 -79.5898 90.4297 -81.4453 87.8418 -81.4453 C 85.5469 -81.4453 84.3262 -80.6641 82.7148 -78.2715 L 55.5176 -37.6465 L 27.9297 3.02734 C 27.1484 4.15039 26.709 5.12695 26.709 6.5918 C 26.709 9.27734 29.0527 10.9863 31.6895 10.9863 Z M 25.9277 -52.6367 L 25.9277 -43.1152 C 25.9277 -40.1367 27.6855 -38.3789 30.4199 -38.3789 C 33.1543 -38.3789 34.9121 -40.1367 34.9121 -43.1152 L 34.9121 -52.6367 L 43.8477 -52.6367 C 46.8262 -52.6367 48.3887 -54.3945 48.3887 -56.9336 C 48.3887 -59.5703 46.8262 -61.3281 43.8477 -61.3281 L 34.9121 -61.3281 L 34.9121 -70.8496 C 34.9121 -73.8281 33.1543 -75.5371 30.4199 -75.5371 C 27.6855 -75.5371 25.9277 -73.8281 25.9277 -70.8496 L 25.9277 -61.3281 L 17.041 -61.3281 C 14.1113 -61.3281 12.4512 -59.5703 12.4512 -56.9336 C 12.4512 -54.3945 14.1113 -52.6367 17.041 -52.6367 Z M 71.6797 -10.5469 C 71.6797 -7.86133 73.3887 -6.15234 76.3672 -6.15234 L 101.709 -6.15234 C 104.688 -6.15234 106.396 -7.86133 106.396 -10.5469 C 106.396 -13.1836 104.688 -14.9414 101.709 -14.9414 L 76.3672 -14.9414 C 73.3887 -14.9414 71.6797 -13.1836 71.6797 -10.5469 Z"/>
  </g>
  <g id="Medium-M" transform="matrix(1 0 0 1 1687.55 1126)">
   <path d="M 31.0547 10.9375 C 32.9102 10.9375 33.9844 10.2051 35.4492 8.10547 L 63.7207 -33.9355 L 90.9668 -74.2676 C 91.6992 -75.3418 92.041 -76.2695 92.041 -77.3926 C 92.041 -79.6875 90.0879 -81.3965 87.793 -81.3965 C 85.6934 -81.3965 84.6191 -80.7129 83.1055 -78.5156 L 55.6152 -37.5488 L 27.6367 3.71094 C 26.9043 4.73633 26.5137 5.66406 26.5137 6.93359 C 26.5137 9.375 28.6133 10.9375 31.0547 10.9375 Z M 25.9277 -53.0762 L 25.9277 -43.1152 C 25.9277 -40.4297 27.5391 -38.8672 29.9805 -38.8672 C 32.373 -38.8672 34.0332 -40.4297 34.0332 -43.1152 L 34.0332 -53.0762 L 43.4082 -53.0762 C 46.0938 -53.0762 47.5098 -54.6875 47.5098 -56.9824 C 47.5098 -59.3262 46.0938 -60.9863 43.4082 -60.9863 L 34.0332 -60.9863 L 34.0332 -70.9473 C 34.0332 -73.6328 32.373 -75.1953 29.9805 -75.1953 C 27.5391 -75.1953 25.9277 -73.6328 25.9277 -70.9473 L 25.9277 -60.9863 L 16.5527 -60.9863 C 13.9648 -60.9863 12.4512 -59.3262 12.4512 -56.9824 C 12.4512 -54.6875 13.9648 -53.0762 16.5527 -53.0762 Z M 71.7773 -10.498 C 71.7773 -8.10547 73.291 -6.54297 76.0254 -6.54297 L 101.367 -6.54297 C 104.053 -6.54297 105.566 -8.10547 105.566 -10.498 C 105.566 -12.8418 104.053 -14.4531 101.367 -14.4531 L 76.0254 -14.4531 C 73.291 -14.4531 71.7773 -12.8418 71.7773 -10.498 Z"/>
  </g>
  <g id="Regular-M" transform="matrix(1 0 0 1 1391.37 1126)">
   <path d="M 30.1758 10.8887 C 31.7871 10.8887 32.7148 10.2051 33.9844 8.39844 L 62.5977 -34.0332 L 90.4297 -75.1465 C 91.1133 -76.0742 91.3574 -76.9043 91.3574 -77.8809 C 91.3574 -79.834 89.6484 -81.3477 87.6465 -81.3477 C 85.9375 -81.3477 85.0098 -80.8105 83.6426 -78.8086 L 55.7129 -37.3535 L 27.2461 4.58984 C 26.6113 5.51758 26.2695 6.29883 26.2695 7.37305 C 26.2695 9.47266 28.0273 10.8887 30.1758 10.8887 Z M 25.8789 -53.6621 L 25.8789 -43.1152 C 25.8789 -40.8203 27.3438 -39.502 29.3945 -39.502 C 31.3965 -39.502 32.9102 -40.8203 32.9102 -43.1152 L 32.9102 -53.6621 L 42.7734 -53.6621 C 45.1172 -53.6621 46.3379 -55.127 46.3379 -57.0801 C 46.3379 -58.9844 45.1172 -60.5469 42.7734 -60.5469 L 32.9102 -60.5469 L 32.9102 -71.0938 C 32.9102 -73.3887 31.3965 -74.7559 29.3945 -74.7559 C 27.3438 -74.7559 25.8789 -73.3887 25.8789 -71.0938 L 25.8789 -60.5469 L 16.0156 -60.5469 C 13.7207 -60.5469 12.4512 -58.9844 12.4512 -57.0801 C 12.4512 -55.127 13.7207 -53.6621 16.0156 -53.6621 Z M 71.9238 -10.4492 C 71.9238 -8.44727 73.1934 -7.03125 75.5371 -7.03125 L 100.879 -7.03125 C 103.174 -7.03125 104.492 -8.44727 104.492 -10.4492 C 104.492 -12.4023 103.174 -13.916 100.879 -13.916 L 75.5371 -13.916 C 73.1934 -13.916 71.9238 -12.4023 71.9238 -10.4492 Z"/>
  </g>
  <g id="Light-M" transform="matrix(1 0 0 1 1095.61 1126)">
   <path d="M 29.3457 10.791 C 30.6152 10.791 31.3477 10.3027 32.373 8.83789 L 60.498 -34.1797 L 88.2324 -76.3672 C 88.7695 -77.1484 89.0137 -77.7832 89.0137 -78.6133 C 89.0137 -80.127 87.6953 -81.2988 86.1328 -81.2988 C 84.7656 -81.2988 84.082 -80.8594 82.959 -79.248 L 55.2246 -36.9141 L 27.1484 5.81055 C 26.6113 6.5918 26.3672 7.22656 26.3672 8.10547 C 26.3672 9.7168 27.6855 10.791 29.3457 10.791 Z M 25.6836 -54.7852 L 25.6836 -43.457 C 25.6836 -41.6992 26.8066 -40.625 28.418 -40.625 C 30.0293 -40.625 31.1523 -41.6992 31.1523 -43.457 L 31.1523 -54.7852 L 41.6504 -54.7852 C 43.457 -54.7852 44.3848 -55.9082 44.3848 -57.4219 C 44.3848 -58.9355 43.457 -60.1074 41.6504 -60.1074 L 31.1523 -60.1074 L 31.1523 -71.4355 C 31.1523 -73.2422 30.0293 -74.3164 28.418 -74.3164 C 26.8066 -74.3164 25.6836 -73.2422 25.6836 -71.4355 L 25.6836 -60.1074 L 15.2344 -60.1074 C 13.4766 -60.1074 12.4512 -58.9355 12.4512 -57.4219 C 12.4512 -55.9082 13.4766 -54.7852 15.2344 -54.7852 Z M 72.0215 -9.91211 C 72.0215 -8.30078 73.0469 -7.22656 74.8535 -7.22656 L 99.7559 -7.22656 C 101.562 -7.22656 102.588 -8.30078 102.588 -9.91211 C 102.588 -11.377 101.562 -12.5488 99.7559 -12.5488 L 74.8535 -12.5488 C 73.0469 -12.5488 72.0215 -11.377 72.0215 -9.91211 Z"/>
  </g>
  <g id="Thin-M" transform="matrix(1 0 0 1 800.123 1126)">
   <path d="M 28.2715 10.6934 C 29.0527 10.6934 29.541 10.4004 30.2246 9.42383 L 57.7637 -34.4238 L 85.3516 -77.9785 C 85.7422 -78.6133 85.8887 -79.0039 85.8887 -79.4922 C 85.8887 -80.4688 85.1074 -81.2012 84.082 -81.2012 C 83.2031 -81.2012 82.8125 -80.9082 82.1289 -79.834 L 54.5898 -36.2793 L 27.002 7.42188 C 26.6113 8.00781 26.416 8.49609 26.416 9.0332 C 26.416 10.0098 27.2461 10.6934 28.2715 10.6934 Z M 25.4883 -56.25 L 25.4883 -43.8477 C 25.4883 -42.8223 26.0742 -42.0898 27.1973 -42.0898 C 28.2227 -42.0898 28.8086 -42.8223 28.8086 -43.8477 L 28.8086 -56.25 L 40.0879 -56.25 C 41.2109 -56.25 41.8457 -56.9336 41.8457 -57.9102 C 41.8457 -58.8379 41.2109 -59.5215 40.0879 -59.5215 L 28.8086 -59.5215 L 28.8086 -71.9238 C 28.8086 -72.998 28.2227 -73.7305 27.1973 -73.7305 C 26.0742 -73.7305 25.4883 -72.998 25.4883 -71.9238 L 25.4883 -59.5215 L 14.1602 -59.5215 C 13.1348 -59.5215 12.4512 -58.8379 12.4512 -57.9102 C 12.4512 -56.9336 13.1348 -56.25 14.1602 -56.25 Z M 72.168 -9.17969 C 72.168 -8.10547 72.8027 -7.51953 73.9746 -7.51953 L 98.3398 -7.51953 C 99.4629 -7.51953 100.146 -8.10547 100.146 -9.17969 C 100.146 -10.0586 99.4629 -10.7422 98.3398 -10.7422 L 73.9746 -10.7422 C 72.8027 -10.7422 72.168 -10.0586 72.168 -9.17969 Z"/>
  </g>
  <g id="Ultralight-M" transform="matrix(1 0 0 1 504.047 1126)">
   <path d="M 27.7344 10.6445 C 28.2715 10.6445 28.6621 10.4492 29.1504 9.7168 L 56.3477 -34.5215 L 83.8867 -78.8086 C 84.1797 -79.2969 84.3262 -79.6387 84.3262 -79.9805 C 84.3262 -80.6641 83.7891 -81.2012 83.0566 -81.2012 C 82.373 -81.2012 82.1289 -80.957 81.6406 -80.1758 L 54.248 -35.9863 L 26.9043 8.25195 C 26.6113 8.74023 26.4648 9.08203 26.4648 9.52148 C 26.4648 10.2051 27.002 10.6445 27.7344 10.6445 Z M 25.3418 -57.0312 L 25.3418 -44.043 C 25.3418 -43.4082 25.6836 -42.8711 26.5625 -42.8711 C 27.2949 -42.8711 27.6367 -43.4082 27.6367 -44.043 L 27.6367 -57.0312 L 39.3066 -57.0312 C 40.0879 -57.0312 40.5273 -57.4219 40.5273 -58.1543 C 40.5273 -58.8379 40.0879 -59.2285 39.3066 -59.2285 L 27.6367 -59.2285 L 27.6367 -72.168 C 27.6367 -72.9004 27.2949 -73.4375 26.5625 -73.4375 C 25.6836 -73.4375 25.3418 -72.9004 25.3418 -72.168 L 25.3418 -59.2285 L 13.6719 -59.2285 C 12.9395 -59.2285 12.4512 -58.8379 12.4512 -58.1543 C 12.4512 -57.4219 12.9395 -57.0312 13.6719 -57.0312 Z M 72.2168 -8.78906 C 72.2168 -8.00781 72.7051 -7.66602 73.4863 -7.66602 L 97.6074 -7.66602 C 98.3887 -7.66602 98.877 -8.00781 98.877 -8.78906 C 98.877 -9.42383 98.3887 -9.81445 97.6074 -9.81445 L 73.4863 -9.81445 C 72.7051 -9.81445 72.2168 -9.42383 72.2168 -8.78906 Z"/>
  </g>
  <g id="Black-S" transform="matrix(1 0 0 1 2885.23 696)">
   <path d="M 27.3438 1.12305 C 29.6875 1.12305 31.1035 0.244141 32.7637 -2.24609 L 53.8086 -33.8867 L 73.1934 -62.7441 C 74.0234 -64.0137 74.5605 -65.2344 74.5605 -66.5527 C 74.5605 -69.5312 72.2168 -71.6309 69.1895 -71.6309 C 66.3574 -71.6309 64.9902 -70.6055 63.3301 -68.1152 L 43.1152 -37.5977 L 22.998 -7.76367 C 22.2168 -6.5918 21.6797 -5.51758 21.6797 -3.80859 C 21.6797 -0.732422 24.4629 1.12305 27.3438 1.12305 Z M 20.4102 -47.1191 L 20.4102 -41.4062 C 20.4102 -37.8906 22.2656 -35.9375 25.5371 -35.9375 C 28.8086 -35.9375 30.6641 -37.8906 30.6641 -41.4062 L 30.6641 -47.1191 L 36.084 -47.1191 C 39.4531 -47.1191 41.3086 -48.9746 41.3086 -52.0508 C 41.3086 -55.2734 39.4531 -56.9824 36.084 -56.9824 L 30.6641 -56.9824 L 30.6641 -62.6953 C 30.6641 -66.2109 28.8086 -68.1641 25.5371 -68.1641 C 22.2656 -68.1641 20.4102 -66.2109 20.4102 -62.6953 L 20.4102 -56.9824 L 15.0391 -56.9824 C 11.6699 -56.9824 9.76562 -55.2734 9.76562 -52.0508 C 9.76562 -48.9746 11.6699 -47.1191 15.0391 -47.1191 Z M 55.7617 -16.0645 C 55.7617 -12.8418 57.7637 -11.084 61.2305 -11.084 L 81.1035 -11.084 C 84.5215 -11.084 86.5723 -12.8418 86.5723 -16.0645 C 86.5723 -19.2383 84.5215 -20.9961 81.1035 -20.9961 L 61.2305 -20.9961 C 57.7637 -20.9961 55.7617 -19.2383 55.7617 -16.0645 Z"/>
  </g>
  <g id="Heavy-S" transform="matrix(1 0 0 1 2588.96 696)">
   <path d="M 26.5625 1.07422 C 28.7109 1.07422 29.9805 0.292969 31.4941 -2.00195 L 52.9297 -33.9844 L 72.9004 -63.4766 C 73.6816 -64.6484 74.1211 -65.7715 74.1211 -66.9922 C 74.1211 -69.6777 71.9727 -71.582 69.2383 -71.582 C 66.748 -71.582 65.4785 -70.6543 63.916 -68.3594 L 43.3105 -37.5 L 22.6074 -7.03125 C 21.875 -5.95703 21.4355 -4.93164 21.4355 -3.41797 C 21.4355 -0.634766 23.9258 1.07422 26.5625 1.07422 Z M 20.4102 -47.6074 L 20.4102 -41.3574 C 20.4102 -38.1836 22.1191 -36.4258 25.0488 -36.4258 C 27.9785 -36.4258 29.7363 -38.1836 29.7363 -41.3574 L 29.7363 -47.6074 L 35.5957 -47.6074 C 38.6719 -47.6074 40.332 -49.3164 40.332 -52.0996 C 40.332 -54.9316 38.6719 -56.5918 35.5957 -56.5918 L 29.7363 -56.5918 L 29.7363 -62.793 C 29.7363 -65.9668 27.9785 -67.7246 25.0488 -67.7246 C 22.1191 -67.7246 20.4102 -65.9668 20.4102 -62.793 L 20.4102 -56.5918 L 14.5508 -56.5918 C 11.4746 -56.5918 9.76562 -54.9316 9.76562 -52.0996 C 9.76562 -49.3164 11.4746 -47.6074 14.5508 -47.6074 Z M 55.9082 -16.0645 C 55.9082 -13.1836 57.666 -11.5234 60.8398 -11.5234 L 80.7617 -11.5234 C 83.8379 -11.5234 85.6934 -13.1836 85.6934 -16.0645 C 85.6934 -18.8965 83.8379 -20.5566 80.7617 -20.5566 L 60.8398 -20.5566 C 57.666 -20.5566 55.9082 -18.8965 55.9082 -16.0645 Z"/>
  </g>
  <g id="Bold-S" transform="matrix(1 0 0 1 2292.76 696)">
   <path d="M 25.6836 1.02539 C 27.5879 1.02539 28.7109 0.292969 30.0781 -1.75781 L 51.9531 -34.0332 L 72.5586 -64.3066 C 73.2422 -65.3809 73.6328 -66.3086 73.6328 -67.4316 C 73.6328 -69.7754 71.6797 -71.4844 69.3359 -71.4844 C 67.1387 -71.4844 66.0156 -70.752 64.5996 -68.6523 L 43.5059 -37.3535 L 22.2168 -6.20117 C 21.5332 -5.22461 21.1426 -4.3457 21.1426 -2.97852 C 21.1426 -0.537109 23.291 1.02539 25.6836 1.02539 Z M 20.4102 -48.1445 L 20.4102 -41.3574 C 20.4102 -38.5254 21.9727 -36.9629 24.5117 -36.9629 C 27.0508 -36.9629 28.6621 -38.5254 28.6621 -41.3574 L 28.6621 -48.1445 L 35.1074 -48.1445 C 37.793 -48.1445 39.2578 -49.707 39.2578 -52.0996 C 39.2578 -54.541 37.793 -56.1035 35.1074 -56.1035 L 28.6621 -56.1035 L 28.6621 -62.9395 C 28.6621 -65.7227 27.0508 -67.2852 24.5117 -67.2852 C 21.9727 -67.2852 20.4102 -65.7227 20.4102 -62.9395 L 20.4102 -56.1035 L 13.9648 -56.1035 C 11.2793 -56.1035 9.76562 -54.541 9.76562 -52.0996 C 9.76562 -49.707 11.2793 -48.1445 13.9648 -48.1445 Z M 56.0547 -16.0645 C 56.0547 -13.5742 57.6172 -12.0605 60.3516 -12.0605 L 80.3223 -12.0605 C 83.0566 -12.0605 84.668 -13.5742 84.668 -16.0645 C 84.668 -18.5059 83.0566 -20.0684 80.3223 -20.0684 L 60.3516 -20.0684 C 57.6172 -20.0684 56.0547 -18.5059 56.0547 -16.0645 Z"/>
  </g>
  <g id="Semibold-S" transform="matrix(1 0 0 1 1996.39 696)">
   <path d="M 25.0977 0.976562 C 26.8555 0.976562 27.832 0.341797 29.1504 -1.5625 L 51.2695 -34.082 L 72.3145 -64.8926 C 72.998 -65.8691 73.291 -66.748 73.291 -67.7734 C 73.291 -69.873 71.5332 -71.4355 69.3359 -71.4355 C 67.4316 -71.4355 66.4062 -70.8008 65.0391 -68.8477 L 43.6523 -37.3047 L 21.9238 -5.61523 C 21.2891 -4.73633 20.8984 -3.90625 20.8984 -2.68555 C 20.8984 -0.439453 22.8516 0.976562 25.0977 0.976562 Z M 20.4102 -48.4863 L 20.4102 -41.3086 C 20.4102 -38.7695 21.875 -37.3535 24.1211 -37.3535 C 26.416 -37.3535 27.9297 -38.7695 27.9297 -41.3086 L 27.9297 -48.4863 L 34.7168 -48.4863 C 37.207 -48.4863 38.5254 -50 38.5254 -52.0996 C 38.5254 -54.2969 37.207 -55.8105 34.7168 -55.8105 L 27.9297 -55.8105 L 27.9297 -62.9883 C 27.9297 -65.5273 26.416 -66.9434 24.1211 -66.9434 C 21.875 -66.9434 20.4102 -65.5273 20.4102 -62.9883 L 20.4102 -55.8105 L 13.5742 -55.8105 C 11.1328 -55.8105 9.76562 -54.2969 9.76562 -52.0996 C 9.76562 -50 11.1328 -48.4863 13.5742 -48.4863 Z M 56.1523 -16.0645 C 56.1523 -13.8672 57.5684 -12.4023 60.0586 -12.4023 L 80.0781 -12.4023 C 82.5684 -12.4023 83.9844 -13.8672 83.9844 -16.0645 C 83.9844 -18.2617 82.5684 -19.7754 80.0781 -19.7754 L 60.0586 -19.7754 C 57.5684 -19.7754 56.1523 -18.2617 56.1523 -16.0645 Z"/>
  </g>
  <g id="Medium-S" transform="matrix(1 0 0 1 1699.95 696)">
   <path d="M 24.6582 0.976562 C 26.2695 0.976562 27.1484 0.341797 28.3691 -1.41602 L 50.7324 -34.1309 L 72.168 -65.332 C 72.7539 -66.2109 73.0469 -67.041 73.0469 -68.0176 C 73.0469 -69.9707 71.3867 -71.4355 69.3848 -71.4355 C 67.627 -71.4355 66.6992 -70.8496 65.4297 -68.9941 L 43.75 -37.207 L 21.6797 -5.22461 C 21.0938 -4.3457 20.752 -3.56445 20.752 -2.49023 C 20.752 -0.390625 22.5586 0.976562 24.6582 0.976562 Z M 20.4102 -48.7793 L 20.4102 -41.3086 C 20.4102 -38.9648 21.7773 -37.6465 23.877 -37.6465 C 25.9277 -37.6465 27.3438 -38.9648 27.3438 -41.3086 L 27.3438 -48.7793 L 34.4727 -48.7793 C 36.7676 -48.7793 37.9883 -50.1953 37.9883 -52.1484 C 37.9883 -54.1016 36.7676 -55.5664 34.4727 -55.5664 L 27.3438 -55.5664 L 27.3438 -63.0859 C 27.3438 -65.3809 25.9277 -66.6992 23.877 -66.6992 C 21.7773 -66.6992 20.4102 -65.3809 20.4102 -63.0859 L 20.4102 -55.5664 L 13.2812 -55.5664 C 11.0352 -55.5664 9.76562 -54.1016 9.76562 -52.1484 C 9.76562 -50.1953 11.0352 -48.7793 13.2812 -48.7793 Z M 56.2012 -16.0645 C 56.2012 -14.0625 57.5195 -12.6953 59.8145 -12.6953 L 79.834 -12.6953 C 82.1777 -12.6953 83.4473 -14.0625 83.4473 -16.0645 C 83.4473 -18.0664 82.1777 -19.4824 79.834 -19.4824 L 59.8145 -19.4824 C 57.5195 -19.4824 56.2012 -18.0664 56.2012 -16.0645 Z"/>
  </g>
  <g id="Regular-S" transform="matrix(1 0 0 1 1403.58 696)">
   <path d="M 24.0234 0.927734 C 25.4883 0.927734 26.3184 0.341797 27.4414 -1.26953 L 50.0488 -34.2285 L 71.9238 -65.918 C 72.5098 -66.6992 72.7539 -67.4316 72.7539 -68.3105 C 72.7539 -70.0684 71.1914 -71.3867 69.4336 -71.3867 C 67.9199 -71.3867 67.0898 -70.8984 65.8691 -69.1406 L 43.8965 -37.1582 L 21.4355 -4.63867 C 20.8496 -3.85742 20.5566 -3.125 20.5566 -2.19727 C 20.5566 -0.292969 22.1191 0.927734 24.0234 0.927734 Z M 20.3613 -49.1699 L 20.3613 -41.2598 C 20.3613 -39.209 21.6797 -38.0371 23.4863 -38.0371 C 25.293 -38.0371 26.6113 -39.209 26.6113 -41.2598 L 26.6113 -49.1699 L 34.082 -49.1699 C 36.1816 -49.1699 37.2559 -50.4395 37.2559 -52.1484 C 37.2559 -53.8574 36.1816 -55.2734 34.082 -55.2734 L 26.6113 -55.2734 L 26.6113 -63.1348 C 26.6113 -65.1855 25.293 -66.4062 23.4863 -66.4062 C 21.6797 -66.4062 20.3613 -65.1855 20.3613 -63.1348 L 20.3613 -55.2734 L 12.9395 -55.2734 C 10.8887 -55.2734 9.76562 -53.8574 9.76562 -52.1484 C 9.76562 -50.4395 10.8887 -49.1699 12.9395 -49.1699 Z M 56.2988 -16.0645 C 56.2988 -14.3555 57.4219 -13.0371 59.5215 -13.0371 L 79.5898 -13.0371 C 81.6406 -13.0371 82.7637 -14.3555 82.7637 -16.0645 C 82.7637 -17.8223 81.6406 -19.1895 79.5898 -19.1895 L 59.5215 -19.1895 C 57.4219 -19.1895 56.2988 -17.8223 56.2988 -16.0645 Z"/>
  </g>
  <g id="Light-S" transform="matrix(1 0 0 1 1107.7 696)">
   <path d="M 23.3398 0.878906 C 24.4629 0.878906 25.0977 0.390625 25.9766 -0.878906 L 48.2422 -34.375 L 69.9707 -66.9922 C 70.459 -67.6758 70.6543 -68.2129 70.6543 -68.9453 C 70.6543 -70.3125 69.4336 -71.3379 68.0664 -71.3379 C 66.8945 -71.3379 66.2598 -70.9473 65.2832 -69.5801 L 43.457 -36.7188 L 21.3379 -3.56445 C 20.8496 -2.88086 20.6055 -2.29492 20.6055 -1.5625 C 20.6055 -0.0976562 21.8262 0.878906 23.3398 0.878906 Z M 20.2148 -50.1465 L 20.2148 -41.5527 C 20.2148 -39.9414 21.1914 -39.0137 22.6562 -39.0137 C 24.0723 -39.0137 25.0977 -39.9414 25.0977 -41.5527 L 25.0977 -50.1465 L 33.0566 -50.1465 C 34.668 -50.1465 35.5469 -51.123 35.5469 -52.4902 C 35.5469 -53.8086 34.668 -54.8828 33.0566 -54.8828 L 25.0977 -54.8828 L 25.0977 -63.4766 C 25.0977 -65.0391 24.0723 -66.0156 22.6562 -66.0156 C 21.1914 -66.0156 20.2148 -65.0391 20.2148 -63.4766 L 20.2148 -54.8828 L 12.207 -54.8828 C 10.6445 -54.8828 9.76562 -53.8086 9.76562 -52.4902 C 9.76562 -51.123 10.6445 -50.1465 12.207 -50.1465 Z M 56.3965 -15.5762 C 56.3965 -14.209 57.2754 -13.2324 58.9355 -13.2324 L 78.6133 -13.2324 C 80.2246 -13.2324 81.1035 -14.209 81.1035 -15.5762 C 81.1035 -16.9434 80.2246 -17.9688 78.6133 -17.9688 L 58.9355 -17.9688 C 57.2754 -17.9688 56.3965 -16.9434 56.3965 -15.5762 Z"/>
  </g>
  <g id="Thin-S" transform="matrix(1 0 0 1 812.086 696)">
   <path d="M 22.3633 0.78125 C 23.0957 0.78125 23.5352 0.488281 24.1211 -0.390625 L 45.8008 -34.5215 L 67.4316 -68.4082 C 67.7734 -68.9453 67.9199 -69.2871 67.9199 -69.7266 C 67.9199 -70.6055 67.1875 -71.2891 66.2598 -71.2891 C 65.4785 -71.2891 65.1367 -70.9961 64.502 -70.0684 L 42.9199 -36.1816 L 21.1914 -2.14844 C 20.8496 -1.61133 20.7031 -1.2207 20.7031 -0.732422 C 20.7031 0.146484 21.4355 0.78125 22.3633 0.78125 Z M 20.0195 -51.416 L 20.0195 -41.8945 C 20.0195 -40.9668 20.5566 -40.332 21.5332 -40.332 C 22.4609 -40.332 23.0469 -40.9668 23.0469 -41.8945 L 23.0469 -51.416 L 31.7383 -51.416 C 32.7148 -51.416 33.252 -52.002 33.252 -52.8809 C 33.252 -53.7598 32.7148 -54.3945 31.7383 -54.3945 L 23.0469 -54.3945 L 23.0469 -63.8672 C 23.0469 -64.8926 22.4609 -65.5273 21.5332 -65.5273 C 20.5566 -65.5273 20.0195 -64.8926 20.0195 -63.8672 L 20.0195 -54.3945 L 11.3281 -54.3945 C 10.3516 -54.3945 9.76562 -53.7598 9.76562 -52.8809 C 9.76562 -52.002 10.3516 -51.416 11.3281 -51.416 Z M 56.4941 -14.9414 C 56.4941 -14.0137 57.1289 -13.4766 58.1055 -13.4766 L 77.3438 -13.4766 C 78.3203 -13.4766 78.9062 -14.0137 78.9062 -14.9414 C 78.9062 -15.7715 78.3203 -16.4062 77.3438 -16.4062 L 58.1055 -16.4062 C 57.1289 -16.4062 56.4941 -15.7715 56.4941 -14.9414 Z"/>
  </g>
  <g id="Ultralight-S" transform="matrix(1 0 0 1 515.937 696)">
   <path d="M 21.875 0.732422 C 22.3633 0.732422 22.7051 0.537109 23.1445 -0.0976562 L 44.5312 -34.668 L 66.1133 -69.1895 C 66.3574 -69.5801 66.5039 -69.8242 66.5039 -70.166 C 66.5039 -70.752 66.0156 -71.2402 65.332 -71.2402 C 64.7461 -71.2402 64.5508 -71.0449 64.1113 -70.3613 L 42.5781 -35.8887 L 21.0938 -1.36719 C 20.8496 -0.976562 20.752 -0.683594 20.752 -0.292969 C 20.752 0.292969 21.2402 0.732422 21.875 0.732422 Z M 19.9219 -52.0996 L 19.9219 -42.0898 C 19.9219 -41.5039 20.2637 -41.0156 20.9961 -41.0156 C 21.6309 -41.0156 21.9727 -41.5039 21.9727 -42.0898 L 21.9727 -52.0996 L 31.0059 -52.0996 C 31.7383 -52.0996 32.0801 -52.4902 32.0801 -53.125 C 32.0801 -53.7109 31.7383 -54.1016 31.0059 -54.1016 L 21.9727 -54.1016 L 21.9727 -64.1113 C 21.9727 -64.7461 21.6309 -65.2344 20.9961 -65.2344 C 20.2637 -65.2344 19.9219 -64.7461 19.9219 -64.1113 L 19.9219 -54.1016 L 10.8398 -54.1016 C 10.2051 -54.1016 9.76562 -53.7109 9.76562 -53.125 C 9.76562 -52.4902 10.2051 -52.0996 10.8398 -52.0996 Z M 56.5918 -14.6484 C 56.5918 -13.916 56.9824 -13.5742 57.7148 -13.5742 L 76.6602 -13.5742 C 77.3926 -13.5742 77.7832 -13.916 77.7832 -14.6484 C 77.7832 -15.1855 77.3926 -15.5762 76.6602 -15.5762 L 57.7148 -15.5762 C 56.9824 -15.5762 56.5918 -15.1855 56.5918 -14.6484 Z"/>
  </g>
 </g>
</svg>
