<?xml version="1.0" encoding="UTF-8"?>
<!--Generator: Apple Native CoreSVG 123-->
<!DOCTYPE svg
PUBLIC "-//W3C//DTD SVG 1.1//EN"
       "http://www.w3.org/Graphics/SVG/1.1/DTD/svg11.dtd">
<svg version="1.1" xmlns="http://www.w3.org/2000/svg" xmlns:xlink="http://www.w3.org/1999/xlink" width="3300" height="2200">
 <!--glyph: "uni10026D.medium", point size: 100.000000, font version: "Version 15.0d7e11", template writer version: "5"-->
 <g id="Notes">
  <rect height="2200" id="artboard" style="fill:white;opacity:1" width="3300" x="0" y="0"/>
  <line id="" style="fill:none;stroke:black;opacity:1;stroke-width:0.5;" x1="263" x2="3036" y1="292" y2="292"/>
  <text style="stroke:none;fill:black;font-family:-apple-system,&quot;SF Pro Display&quot;,&quot;SF Pro Text&quot;,Helvetica,sans-serif;font-weight:bold;" transform="matrix(1 0 0 1 263 322)">Weight/Scale Variations</text>
  <text style="stroke:none;fill:black;font-family:-apple-system,&quot;SF Pro Display&quot;,&quot;SF Pro Text&quot;,Helvetica,sans-serif;text-anchor:middle;" transform="matrix(1 0 0 1 559.711 322)">Ultralight</text>
  <text style="stroke:none;fill:black;font-family:-apple-system,&quot;SF Pro Display&quot;,&quot;SF Pro Text&quot;,Helvetica,sans-serif;text-anchor:middle;" transform="matrix(1 0 0 1 856.422 322)">Thin</text>
  <text style="stroke:none;fill:black;font-family:-apple-system,&quot;SF Pro Display&quot;,&quot;SF Pro Text&quot;,Helvetica,sans-serif;text-anchor:middle;" transform="matrix(1 0 0 1 1153.13 322)">Light</text>
  <text style="stroke:none;fill:black;font-family:-apple-system,&quot;SF Pro Display&quot;,&quot;SF Pro Text&quot;,Helvetica,sans-serif;text-anchor:middle;" transform="matrix(1 0 0 1 1449.84 322)">Regular</text>
  <text style="stroke:none;fill:black;font-family:-apple-system,&quot;SF Pro Display&quot;,&quot;SF Pro Text&quot;,Helvetica,sans-serif;text-anchor:middle;" transform="matrix(1 0 0 1 1746.56 322)">Medium</text>
  <text style="stroke:none;fill:black;font-family:-apple-system,&quot;SF Pro Display&quot;,&quot;SF Pro Text&quot;,Helvetica,sans-serif;text-anchor:middle;" transform="matrix(1 0 0 1 2043.27 322)">Semibold</text>
  <text style="stroke:none;fill:black;font-family:-apple-system,&quot;SF Pro Display&quot;,&quot;SF Pro Text&quot;,Helvetica,sans-serif;text-anchor:middle;" transform="matrix(1 0 0 1 2339.98 322)">Bold</text>
  <text style="stroke:none;fill:black;font-family:-apple-system,&quot;SF Pro Display&quot;,&quot;SF Pro Text&quot;,Helvetica,sans-serif;text-anchor:middle;" transform="matrix(1 0 0 1 2636.69 322)">Heavy</text>
  <text style="stroke:none;fill:black;font-family:-apple-system,&quot;SF Pro Display&quot;,&quot;SF Pro Text&quot;,Helvetica,sans-serif;text-anchor:middle;" transform="matrix(1 0 0 1 2933.4 322)">Black</text>
  <line id="" style="fill:none;stroke:black;opacity:1;stroke-width:0.5;" x1="263" x2="3036" y1="1903" y2="1903"/>
  <g id="" transform="matrix(1 0 0 1 263 1933)">
   <path d="M 9.24805 0.830078 C 13.5547 0.830078 17.1387 -2.74414 17.1387 -7.05078 C 17.1387 -11.3574 13.5449 -14.9316 9.23828 -14.9316 C 4.94141 -14.9316 1.36719 -11.3574 1.36719 -7.05078 C 1.36719 -2.74414 4.95117 0.830078 9.24805 0.830078 Z M 9.24805 -0.654297 C 5.70312 -0.654297 2.87109 -3.49609 2.87109 -7.05078 C 2.87109 -10.6055 5.69336 -13.4473 9.23828 -13.4473 C 12.793 -13.4473 15.6348 -10.6055 15.6445 -7.05078 C 15.6543 -3.49609 12.8027 -0.654297 9.24805 -0.654297 Z M 9.22852 -3.42773 C 9.69727 -3.42773 9.9707 -3.74023 9.9707 -4.25781 L 9.9707 -6.31836 L 12.1973 -6.31836 C 12.6953 -6.31836 13.0371 -6.57227 13.0371 -7.04102 C 13.0371 -7.51953 12.7148 -7.7832 12.1973 -7.7832 L 9.9707 -7.7832 L 9.9707 -10.0098 C 9.9707 -10.5273 9.69727 -10.8496 9.22852 -10.8496 C 8.75977 -10.8496 8.50586 -10.5078 8.50586 -10.0098 L 8.50586 -7.7832 L 6.29883 -7.7832 C 5.78125 -7.7832 5.44922 -7.51953 5.44922 -7.04102 C 5.44922 -6.57227 5.80078 -6.31836 6.29883 -6.31836 L 8.50586 -6.31836 L 8.50586 -4.25781 C 8.50586 -3.75977 8.75977 -3.42773 9.22852 -3.42773 Z"/>
  </g>
  <g id="" transform="matrix(1 0 0 1 281.506 1933)">
   <path d="M 11.709 2.91016 C 17.1582 2.91016 21.6699 -1.60156 21.6699 -7.05078 C 21.6699 -12.4902 17.1484 -17.0117 11.6992 -17.0117 C 6.25977 -17.0117 1.74805 -12.4902 1.74805 -7.05078 C 1.74805 -1.60156 6.26953 2.91016 11.709 2.91016 Z M 11.709 1.25 C 7.09961 1.25 3.41797 -2.44141 3.41797 -7.05078 C 3.41797 -11.6504 7.08984 -15.3516 11.6992 -15.3516 C 16.3086 -15.3516 20 -11.6504 20.0098 -7.05078 C 20.0195 -2.44141 16.3184 1.25 11.709 1.25 Z M 11.6895 -2.41211 C 12.207 -2.41211 12.5195 -2.77344 12.5195 -3.33984 L 12.5195 -6.23047 L 15.5762 -6.23047 C 16.123 -6.23047 16.5039 -6.51367 16.5039 -7.03125 C 16.5039 -7.55859 16.1426 -7.86133 15.5762 -7.86133 L 12.5195 -7.86133 L 12.5195 -10.9277 C 12.5195 -11.5039 12.207 -11.8555 11.6895 -11.8555 C 11.1719 -11.8555 10.8789 -11.4844 10.8789 -10.9277 L 10.8789 -7.86133 L 7.83203 -7.86133 C 7.26562 -7.86133 6.89453 -7.55859 6.89453 -7.03125 C 6.89453 -6.51367 7.28516 -6.23047 7.83203 -6.23047 L 10.8789 -6.23047 L 10.8789 -3.33984 C 10.8789 -2.79297 11.1719 -2.41211 11.6895 -2.41211 Z"/>
  </g>
  <g id="" transform="matrix(1 0 0 1 304.924 1933)">
   <path d="M 14.9707 5.67383 C 21.9336 5.67383 27.6953 -0.078125 27.6953 -7.04102 C 27.6953 -14.0039 21.9238 -19.7559 14.9609 -19.7559 C 8.00781 -19.7559 2.25586 -14.0039 2.25586 -7.04102 C 2.25586 -0.078125 8.01758 5.67383 14.9707 5.67383 Z M 14.9707 3.85742 C 8.93555 3.85742 4.08203 -1.00586 4.08203 -7.04102 C 4.08203 -13.0762 8.92578 -17.9395 14.9609 -17.9395 C 21.0059 -17.9395 25.8594 -13.0762 25.8691 -7.04102 C 25.8789 -1.00586 21.0156 3.85742 14.9707 3.85742 Z M 14.9512 -1.06445 C 15.5176 -1.06445 15.8691 -1.45508 15.8691 -2.06055 L 15.8691 -6.13281 L 20.1074 -6.13281 C 20.6934 -6.13281 21.1133 -6.46484 21.1133 -7.02148 C 21.1133 -7.59766 20.7227 -7.93945 20.1074 -7.93945 L 15.8691 -7.93945 L 15.8691 -12.1875 C 15.8691 -12.8027 15.5176 -13.1934 14.9512 -13.1934 C 14.3848 -13.1934 14.0625 -12.7832 14.0625 -12.1875 L 14.0625 -7.93945 L 9.83398 -7.93945 C 9.21875 -7.93945 8.80859 -7.59766 8.80859 -7.02148 C 8.80859 -6.46484 9.23828 -6.13281 9.83398 -6.13281 L 14.0625 -6.13281 L 14.0625 -2.06055 C 14.0625 -1.47461 14.3848 -1.06445 14.9512 -1.06445 Z"/>
  </g>
  <text style="stroke:none;fill:black;font-family:-apple-system,&quot;SF Pro Display&quot;,&quot;SF Pro Text&quot;,Helvetica,sans-serif;font-weight:bold;" transform="matrix(1 0 0 1 263 1953)">Design Variations</text>
  <text style="stroke:none;fill:black;font-family:-apple-system,&quot;SF Pro Display&quot;,&quot;SF Pro Text&quot;,Helvetica,sans-serif;" transform="matrix(1 0 0 1 263 1971)">Symbols are supported in up to nine weights and three scales.</text>
  <text style="stroke:none;fill:black;font-family:-apple-system,&quot;SF Pro Display&quot;,&quot;SF Pro Text&quot;,Helvetica,sans-serif;" transform="matrix(1 0 0 1 263 1989)">For optimal layout with text and other symbols, vertically align</text>
  <text style="stroke:none;fill:black;font-family:-apple-system,&quot;SF Pro Display&quot;,&quot;SF Pro Text&quot;,Helvetica,sans-serif;" transform="matrix(1 0 0 1 263 2007)">symbols with the adjacent text.</text>
  <rect height="14" id="" style="fill:#00AEEF;stroke:none;opacity:0.4;" width="3" x="776" y="1919"/>
  <g id="" transform="matrix(1 0 0 1 779 1933)">
   <path d="M 10.5273 0 L 12.373 0 L 7.17773 -14.0918 L 5.43945 -14.0918 L 0.244141 0 L 2.08984 0 L 3.50586 -4.0332 L 9.11133 -4.0332 Z M 6.2793 -11.9531 L 6.33789 -11.9531 L 8.59375 -5.52734 L 4.02344 -5.52734 Z"/>
  </g>
  <rect height="14" id="" style="fill:#00AEEF;stroke:none;opacity:0.4;" width="3" x="791.617" y="1919"/>
  <text style="stroke:none;fill:black;font-family:-apple-system,&quot;SF Pro Display&quot;,&quot;SF Pro Text&quot;,Helvetica,sans-serif;font-weight:bold;" transform="matrix(1 0 0 1 776 1953)">Margins</text>
  <text style="stroke:none;fill:black;font-family:-apple-system,&quot;SF Pro Display&quot;,&quot;SF Pro Text&quot;,Helvetica,sans-serif;" transform="matrix(1 0 0 1 776 1971)">Leading and trailing margins on the left and right side of each symbol</text>
  <text style="stroke:none;fill:black;font-family:-apple-system,&quot;SF Pro Display&quot;,&quot;SF Pro Text&quot;,Helvetica,sans-serif;" transform="matrix(1 0 0 1 776 1989)">can be adjusted by modifying the width of the blue rectangles.</text>
  <text style="stroke:none;fill:black;font-family:-apple-system,&quot;SF Pro Display&quot;,&quot;SF Pro Text&quot;,Helvetica,sans-serif;" transform="matrix(1 0 0 1 776 2007)">Modifications are automatically applied proportionally to all</text>
  <text style="stroke:none;fill:black;font-family:-apple-system,&quot;SF Pro Display&quot;,&quot;SF Pro Text&quot;,Helvetica,sans-serif;" transform="matrix(1 0 0 1 776 2025)">scales and weights.</text>
  <g id="" transform="matrix(1 0 0 1 1289 1933)">
   <path d="M 2.83203 3.11523 L 4.375 4.6582 C 5.22461 5.48828 6.19141 5.41992 7.06055 4.46289 L 17.2754 -6.66016 C 17.7051 -6.36719 18.0957 -6.37695 18.5645 -6.47461 L 19.6094 -6.68945 L 20.3027 -5.99609 L 20.2539 -5.47852 C 20.1855 -4.95117 20.3516 -4.53125 20.8496 -4.0332 L 21.6602 -3.22266 C 22.168 -2.71484 22.8223 -2.68555 23.3008 -3.16406 L 26.5527 -6.41602 C 27.0312 -6.89453 27.0117 -7.54883 26.5039 -8.05664 L 25.6836 -8.87695 C 25.1855 -9.375 24.7754 -9.55078 24.2383 -9.47266 L 23.7109 -9.41406 L 23.0566 -10.0781 L 23.3398 -11.2207 C 23.4863 -11.7871 23.3398 -12.2559 22.7148 -12.8613 L 20.3027 -15.2539 C 16.7578 -18.7793 12.2266 -18.6719 9.11133 -15.5371 C 8.69141 -15.1074 8.64258 -14.5215 8.91602 -14.0918 C 9.15039 -13.7207 9.62891 -13.4961 10.2734 -13.6621 C 11.7871 -14.043 13.3008 -13.9258 14.7852 -12.9199 L 14.1602 -11.3379 C 13.9258 -10.752 13.9453 -10.2734 14.1797 -9.83398 L 3.01758 0.439453 C 2.08008 1.30859 1.97266 2.25586 2.83203 3.11523 Z M 10.6738 -15.1465 C 13.3398 -17.1387 16.6504 -16.8262 19.0527 -14.4141 L 21.6797 -11.8066 C 21.9141 -11.5723 21.9434 -11.3867 21.8848 -11.0938 L 21.5039 -9.53125 L 23.0762 -7.95898 L 24.043 -8.04688 C 24.3262 -8.07617 24.4141 -8.05664 24.6387 -7.83203 L 25.2637 -7.20703 L 22.5098 -4.46289 L 21.8848 -5.07812 C 21.6602 -5.30273 21.6406 -5.40039 21.6699 -5.68359 L 21.7578 -6.64062 L 20.1953 -8.20312 L 18.5742 -7.89062 C 18.291 -7.83203 18.1445 -7.83203 17.9102 -8.07617 L 15.7324 -10.2539 C 15.5078 -10.4883 15.4785 -10.625 15.6055 -10.9473 L 16.5527 -13.2227 C 14.9512 -14.7559 12.8418 -15.6055 10.8008 -14.9512 C 10.7129 -14.9219 10.6445 -14.9414 10.6152 -14.9805 C 10.5859 -15.0293 10.5859 -15.0781 10.6738 -15.1465 Z M 4.10156 2.41211 C 3.61328 1.91406 3.78906 1.61133 4.12109 1.30859 L 15.0781 -8.80859 L 16.3086 -7.57812 L 6.15234 3.34961 C 5.84961 3.68164 5.46875 3.7793 5.06836 3.37891 Z"/>
  </g>
  <text style="stroke:none;fill:black;font-family:-apple-system,&quot;SF Pro Display&quot;,&quot;SF Pro Text&quot;,Helvetica,sans-serif;font-weight:bold;" transform="matrix(1 0 0 1 1289 1953)">Exporting</text>
  <text style="stroke:none;fill:black;font-family:-apple-system,&quot;SF Pro Display&quot;,&quot;SF Pro Text&quot;,Helvetica,sans-serif;" transform="matrix(1 0 0 1 1289 1971)">Symbols should be outlined when exporting to ensure the</text>
  <text style="stroke:none;fill:black;font-family:-apple-system,&quot;SF Pro Display&quot;,&quot;SF Pro Text&quot;,Helvetica,sans-serif;" transform="matrix(1 0 0 1 1289 1989)">design is preserved when submitting to Xcode.</text>
  <text id="template-version" style="stroke:none;fill:black;font-family:-apple-system,&quot;SF Pro Display&quot;,&quot;SF Pro Text&quot;,Helvetica,sans-serif;text-anchor:end;" transform="matrix(1 0 0 1 3036 1933)">Template v.1.0</text>
  <text style="stroke:none;fill:black;font-family:-apple-system,&quot;SF Pro Display&quot;,&quot;SF Pro Text&quot;,Helvetica,sans-serif;text-anchor:end;" transform="matrix(1 0 0 1 3036 1951)">Generated from person.crop.circle</text>
  <text style="stroke:none;fill:black;font-family:-apple-system,&quot;SF Pro Display&quot;,&quot;SF Pro Text&quot;,Helvetica,sans-serif;text-anchor:end;" transform="matrix(1 0 0 1 3036 1969)">Typeset at 100 points</text>
  <text style="stroke:none;fill:black;font-family:-apple-system,&quot;SF Pro Display&quot;,&quot;SF Pro Text&quot;,Helvetica,sans-serif;" transform="matrix(1 0 0 1 263 726)">Small</text>
  <text style="stroke:none;fill:black;font-family:-apple-system,&quot;SF Pro Display&quot;,&quot;SF Pro Text&quot;,Helvetica,sans-serif;" transform="matrix(1 0 0 1 263 1156)">Medium</text>
  <text style="stroke:none;fill:black;font-family:-apple-system,&quot;SF Pro Display&quot;,&quot;SF Pro Text&quot;,Helvetica,sans-serif;" transform="matrix(1 0 0 1 263 1586)">Large</text>
 </g>
 <g id="Guides">
  <g id="H-reference" style="fill:#27AAE1;stroke:none;" transform="matrix(1 0 0 1 339 696)">
   <path d="M 54.9316 0 L 57.666 0 L 30.5664 -70.459 L 28.0762 -70.459 L 0.976562 0 L 3.66211 0 L 12.9395 -24.4629 L 45.7031 -24.4629 Z M 29.1992 -67.0898 L 29.4434 -67.0898 L 44.8242 -26.709 L 13.8184 -26.709 Z"/>
  </g>
  <line id="Baseline-S" style="fill:none;stroke:#27AAE1;opacity:1;stroke-width:0.577;" x1="263" x2="3036" y1="696" y2="696"/>
  <line id="Capline-S" style="fill:none;stroke:#27AAE1;opacity:1;stroke-width:0.577;" x1="263" x2="3036" y1="625.541" y2="625.541"/>
  <g id="H-reference" style="fill:#27AAE1;stroke:none;" transform="matrix(1 0 0 1 339 1126)">
   <path d="M 54.9316 0 L 57.666 0 L 30.5664 -70.459 L 28.0762 -70.459 L 0.976562 0 L 3.66211 0 L 12.9395 -24.4629 L 45.7031 -24.4629 Z M 29.1992 -67.0898 L 29.4434 -67.0898 L 44.8242 -26.709 L 13.8184 -26.709 Z"/>
  </g>
  <line id="Baseline-M" style="fill:none;stroke:#27AAE1;opacity:1;stroke-width:0.577;" x1="263" x2="3036" y1="1126" y2="1126"/>
  <line id="Capline-M" style="fill:none;stroke:#27AAE1;opacity:1;stroke-width:0.577;" x1="263" x2="3036" y1="1055.54" y2="1055.54"/>
  <g id="H-reference" style="fill:#27AAE1;stroke:none;" transform="matrix(1 0 0 1 339 1556)">
   <path d="M 54.9316 0 L 57.666 0 L 30.5664 -70.459 L 28.0762 -70.459 L 0.976562 0 L 3.66211 0 L 12.9395 -24.4629 L 45.7031 -24.4629 Z M 29.1992 -67.0898 L 29.4434 -67.0898 L 44.8242 -26.709 L 13.8184 -26.709 Z"/>
  </g>
  <line id="Baseline-L" style="fill:none;stroke:#27AAE1;opacity:1;stroke-width:0.577;" x1="263" x2="3036" y1="1556" y2="1556"/>
  <line id="Capline-L" style="fill:none;stroke:#27AAE1;opacity:1;stroke-width:0.577;" x1="263" x2="3036" y1="1485.54" y2="1485.54"/>
  <rect height="119.336" id="left-margin" style="fill:#00AEEF;stroke:none;opacity:0.4;" width="8.74023" x="1391.3" y="1030.79"/>
  <rect height="119.336" id="right-margin" style="fill:#00AEEF;stroke:none;opacity:0.4;" width="8.74023" x="1499.65" y="1030.79"/>
 </g>
 <g id="Symbols">
  <g id="Black-L" transform="matrix(1 0 0 1 2854.05 1556)">
   <path d="M 79.3457 32.8613 C 116.748 32.8613 147.412 2.19727 147.412 -35.2051 C 147.412 -72.6074 116.748 -103.271 79.2969 -103.271 C 41.8945 -103.271 11.2793 -72.6074 11.2793 -35.2051 C 11.2793 2.19727 41.9434 32.8613 79.3457 32.8613 Z M 79.3457 -12.4023 C 64.9414 -12.4023 53.6621 -7.61719 46.2402 -0.927734 C 37.3047 -9.57031 31.7383 -21.7285 31.7383 -35.2051 C 31.7383 -61.5723 52.9297 -82.8125 79.2969 -82.8125 C 105.664 -82.8125 126.953 -61.5723 126.953 -35.2051 C 126.953 -21.7285 121.436 -9.57031 112.451 -0.927734 C 105.029 -7.56836 93.75 -12.4023 79.3457 -12.4023 Z M 79.3457 -21.582 C 91.7969 -21.582 101.367 -32.2266 101.367 -45.6543 C 101.367 -58.3008 91.6504 -69.1895 79.3457 -69.1895 C 67.041 -69.1895 57.2754 -58.3008 57.3242 -45.6543 C 57.373 -32.2266 66.8945 -21.6309 79.3457 -21.582 Z"/>
  </g>
  <g id="Heavy-L" transform="matrix(1 0 0 1 2558.39 1556)">
   <path d="M 78.2715 31.7871 C 115.088 31.7871 145.312 1.61133 145.312 -35.2051 C 145.312 -72.0215 115.039 -102.197 78.2715 -102.197 C 41.4551 -102.197 11.2793 -72.0215 11.2793 -35.2051 C 11.2793 1.61133 41.5039 31.7871 78.2715 31.7871 Z M 78.2715 -12.7441 C 62.7441 -12.7441 50.6348 -7.37305 43.4082 -0.439453 C 34.5215 -9.32617 29.0527 -21.582 29.0527 -35.2051 C 29.0527 -62.5 50.9766 -84.4727 78.2715 -84.4727 C 105.518 -84.4727 127.49 -62.5 127.539 -35.2051 C 127.539 -21.582 122.07 -9.27734 113.184 -0.390625 C 105.957 -7.37305 93.8477 -12.7441 78.2715 -12.7441 Z M 78.2715 -22.3633 C 90.625 -22.2656 100.195 -32.8613 100.195 -46.2891 C 100.195 -58.9844 90.5273 -69.7754 78.2715 -69.7754 C 66.0156 -69.7754 56.2988 -58.9844 56.3965 -46.2891 C 56.3965 -32.8613 65.918 -22.4121 78.2715 -22.3633 Z"/>
  </g>
  <g id="Bold-L" transform="matrix(1 0 0 1 2262.88 1556)">
   <path d="M 77.0996 30.6152 C 113.232 30.6152 142.92 0.878906 142.92 -35.2051 C 142.92 -71.3379 113.184 -101.025 77.0508 -101.025 C 40.9668 -101.025 11.2793 -71.3379 11.2793 -35.2051 C 11.2793 0.878906 41.0156 30.6152 77.0996 30.6152 Z M 77.0996 -13.1836 C 60.2051 -13.1836 47.168 -7.12891 40.2344 0.195312 C 31.4453 -8.98438 26.0742 -21.4355 26.0742 -35.2051 C 26.0742 -63.4766 48.7793 -86.2793 77.0508 -86.2793 C 105.371 -86.2793 128.125 -63.4766 128.174 -35.2051 C 128.174 -21.4355 122.754 -8.98438 113.965 0.195312 C 107.08 -7.08008 93.9941 -13.1836 77.0996 -13.1836 Z M 77.0996 -23.1445 C 89.3555 -23.0957 98.877 -33.5938 98.877 -47.0703 C 98.877 -59.7168 89.2578 -70.459 77.0996 -70.459 C 64.9414 -70.459 55.2734 -59.7168 55.3223 -47.0703 C 55.3711 -33.5938 64.8438 -23.2422 77.0996 -23.1445 Z"/>
  </g>
  <g id="Semibold-L" transform="matrix(1 0 0 1 1966.97 1556)">
   <path d="M 76.2695 29.7852 C 111.914 29.7852 141.309 0.439453 141.309 -35.2051 C 141.309 -70.8496 111.865 -100.244 76.2695 -100.244 C 40.625 -100.244 11.2793 -70.8496 11.2793 -35.2051 C 11.2793 0.439453 40.6738 29.7852 76.2695 29.7852 Z M 76.2695 -13.4766 C 58.4961 -13.4766 44.7754 -6.88477 38.1348 0.585938 C 29.3457 -8.74023 24.0234 -21.3379 24.0234 -35.2051 C 24.0234 -64.209 47.2656 -87.5 76.2695 -87.5 C 105.225 -87.5 128.564 -64.209 128.613 -35.2051 C 128.613 -21.3379 123.242 -8.74023 114.453 0.634766 C 107.861 -6.88477 94.1406 -13.4766 76.2695 -13.4766 Z M 76.2695 -23.7305 C 88.5254 -23.6328 97.9492 -34.082 97.9492 -47.5586 C 97.9492 -60.2539 88.4277 -70.9473 76.2695 -70.9473 C 64.1602 -70.9473 54.541 -60.2539 54.5898 -47.5586 C 54.6387 -34.082 64.0625 -23.8281 76.2695 -23.7305 Z"/>
  </g>
  <g id="Medium-L" transform="matrix(1 0 0 1 1670.87 1556)">
   <path d="M 75.6836 29.1992 C 110.938 29.1992 140.088 0.0488281 140.088 -35.2051 C 140.088 -70.459 110.889 -99.6094 75.6348 -99.6094 C 40.3809 -99.6094 11.2793 -70.459 11.2793 -35.2051 C 11.2793 0.0488281 40.3809 29.1992 75.6836 29.1992 Z M 75.6836 -13.7207 C 57.1289 -13.7207 42.9199 -6.73828 36.5234 0.927734 C 27.7832 -8.54492 22.4609 -21.2402 22.4609 -35.2051 C 22.4609 -64.6973 46.1426 -88.4766 75.6348 -88.4766 C 105.127 -88.4766 128.906 -64.6973 128.906 -35.2051 C 128.955 -21.2402 123.633 -8.54492 114.844 0.976562 C 108.447 -6.73828 94.2383 -13.7207 75.6836 -13.7207 Z M 75.6836 -24.1699 C 87.8418 -24.0723 97.2656 -34.4727 97.2656 -47.9492 C 97.2656 -60.6445 87.7441 -71.2891 75.6836 -71.2891 C 63.623 -71.2891 54.0039 -60.6445 54.0527 -47.9492 C 54.1016 -34.4727 63.5254 -24.2676 75.6836 -24.1699 Z"/>
  </g>
  <g id="Regular-L" transform="matrix(1 0 0 1 1374.97 1556)">
   <path d="M 74.8535 28.3691 C 109.668 28.3691 138.477 -0.390625 138.477 -35.2051 C 138.477 -70.0195 109.619 -98.7793 74.8047 -98.7793 C 40.0391 -98.7793 11.2793 -70.0195 11.2793 -35.2051 C 11.2793 -0.390625 40.0879 28.3691 74.8535 28.3691 Z M 74.8535 -14.0137 C 55.3711 -14.0137 40.4785 -6.49414 34.4238 1.36719 C 25.7324 -8.30078 20.4102 -21.0938 20.4102 -35.2051 C 20.4102 -65.3809 44.6289 -89.6973 74.8047 -89.6973 C 105.029 -89.6973 129.297 -65.3809 129.346 -35.2051 C 129.395 -21.0938 124.072 -8.25195 115.332 1.41602 C 109.277 -6.49414 94.3848 -14.0137 74.8535 -14.0137 Z M 74.8535 -24.707 C 86.9629 -24.6094 96.3867 -34.9609 96.3867 -48.4863 C 96.3867 -61.1816 86.8652 -71.7285 74.8535 -71.7285 C 62.8418 -71.7285 53.2715 -61.1816 53.3203 -48.4863 C 53.3691 -34.9609 62.7441 -24.8047 74.8535 -24.707 Z"/>
  </g>
  <g id="Light-L" transform="matrix(1 0 0 1 1079.18 1556)">
   <path d="M 73.9258 27.4902 C 108.301 27.4902 136.621 -0.830078 136.621 -35.1562 C 136.621 -69.5312 108.252 -97.8516 73.9258 -97.8516 C 39.5508 -97.8516 11.2793 -69.5312 11.2793 -35.1562 C 11.2793 -0.830078 39.5996 27.4902 73.9258 27.4902 Z M 73.9258 -14.2578 C 53.6621 -14.2578 38.3789 -5.61523 32.8125 2.49023 C 23.7305 -7.42188 18.2129 -20.6543 18.2129 -35.1562 C 18.2129 -66.0156 43.0664 -90.918 73.9258 -90.918 C 104.736 -90.918 129.688 -66.0156 129.736 -35.1562 C 129.736 -20.6055 124.17 -7.37305 115.039 2.58789 C 109.521 -5.66406 94.2871 -14.2578 73.9258 -14.2578 Z M 73.9258 -25.0488 C 86.0352 -25 95.3613 -35.3027 95.3613 -48.7793 C 95.3613 -61.4258 85.8887 -71.9727 73.9258 -71.9727 C 62.0117 -71.9727 52.4414 -61.4258 52.5391 -48.7793 C 52.5391 -35.3027 61.8652 -25.1465 73.9258 -25.0488 Z"/>
  </g>
  <g id="Thin-L" transform="matrix(1 0 0 1 783.693 1556)">
   <path d="M 72.7051 26.3184 C 106.494 26.3184 134.18 -1.36719 134.18 -35.1074 C 134.18 -68.8965 106.494 -96.582 72.7051 -96.582 C 38.9648 -96.582 11.2793 -68.8965 11.2793 -35.1074 C 11.2793 -1.36719 38.9648 26.3184 72.7051 26.3184 Z M 72.7051 -14.5996 C 51.3184 -14.5996 35.498 -4.24805 30.7617 4.10156 C 21.1426 -6.15234 15.2832 -19.9707 15.2832 -35.1074 C 15.2832 -66.8457 41.0156 -92.5781 72.7051 -92.5781 C 104.395 -92.5781 130.176 -66.8457 130.176 -35.1074 C 130.176 -19.9219 124.268 -6.10352 114.6 4.15039 C 109.912 -4.29688 94.1406 -14.5996 72.7051 -14.5996 Z M 72.7051 -25.4883 C 84.8145 -25.4883 93.9941 -35.791 93.9941 -49.1699 C 93.9941 -61.7188 84.5703 -72.3145 72.7051 -72.3145 C 60.8887 -72.3145 51.3672 -61.7188 51.4648 -49.1699 C 51.4648 -35.791 60.6445 -25.5371 72.7051 -25.4883 Z"/>
  </g>
  <g id="Ultralight-L" transform="matrix(1 0 0 1 487.616 1556)">
   <path d="M 72.1191 25.7324 C 105.566 25.7324 132.91 -1.61133 132.91 -35.1074 C 132.91 -68.5547 105.566 -95.8984 72.1191 -95.8984 C 38.623 -95.8984 11.2793 -68.5547 11.2793 -35.1074 C 11.2793 -1.61133 38.623 25.7324 72.1191 25.7324 Z M 114.209 4.98047 L 114.258 4.78516 C 109.863 -3.66211 93.9453 -14.7461 72.1191 -14.7461 C 50.4395 -14.7461 34.4727 -3.75977 29.9316 4.54102 L 29.9805 4.98047 C 31.9336 7.08008 34.0332 9.08203 36.2793 10.8887 C 22.6074 0.195312 13.7695 -16.4551 13.7695 -35.1074 C 13.7695 -67.2363 39.9414 -93.4082 72.1191 -93.4082 C 104.248 -93.4082 130.42 -67.2363 130.42 -35.1074 C 130.42 -16.1133 121.289 0.78125 107.178 11.4258 C 109.619 9.47266 111.963 7.32422 114.209 4.98047 Z M 72.1191 -25.7324 C 84.1309 -25.7324 93.3105 -36.0352 93.3105 -49.3652 C 93.3105 -61.8652 83.8867 -72.5098 72.1191 -72.5098 C 60.3027 -72.5098 50.8301 -61.8652 50.8789 -49.3652 C 50.8789 -36.0352 60.0586 -25.7324 72.1191 -25.7324 Z"/>
  </g>
  <g id="Black-M" transform="matrix(1 0 0 1 2870.97 1126)">
   <path d="M 62.4023 18.457 C 91.9922 18.457 116.113 -5.61523 116.113 -35.2051 C 116.113 -64.7949 91.9922 -88.8672 62.4023 -88.8672 C 32.8125 -88.8672 8.74023 -64.7949 8.74023 -35.2051 C 8.74023 -5.61523 32.8125 18.457 62.4023 18.457 Z M 27.002 -35.2051 C 27.002 -54.7363 42.8711 -70.6055 62.4023 -70.6055 C 81.9824 -70.6055 97.8027 -54.7363 97.8027 -35.2051 C 97.8027 -24.7559 93.3105 -15.3809 86.084 -8.88672 C 80.0293 -13.8672 72.2656 -17.1387 62.4023 -17.1387 C 52.5879 -17.1387 44.8242 -13.8672 38.7207 -8.88672 C 31.543 -15.3809 27.002 -24.7559 27.002 -35.2051 Z M 62.4023 -23.8281 C 72.168 -23.877 79.541 -32.2266 79.541 -42.5781 C 79.541 -52.3438 72.0215 -60.8887 62.4023 -60.8887 C 52.832 -60.8887 45.2148 -52.3438 45.2637 -42.5781 C 45.2637 -32.2266 52.6855 -23.8281 62.4023 -23.8281 Z"/>
  </g>
  <g id="Heavy-M" transform="matrix(1 0 0 1 2575.19 1126)">
   <path d="M 61.5234 17.5781 C 90.5273 17.5781 114.258 -6.15234 114.258 -35.2051 C 114.258 -64.2578 90.5273 -87.9883 61.4746 -87.9883 C 32.4707 -87.9883 8.74023 -64.2578 8.74023 -35.2051 C 8.74023 -6.15234 32.4707 17.5781 61.5234 17.5781 Z M 61.5234 -17.4805 C 50.5371 -17.4805 41.8945 -13.7695 36.084 -8.54492 C 29.0527 -15.2344 24.6582 -24.707 24.6582 -35.2051 C 24.6582 -55.5664 41.1133 -72.0703 61.4746 -72.0703 C 81.8848 -72.0703 98.3398 -55.5664 98.3398 -35.2051 C 98.3398 -24.707 93.9941 -15.2344 86.9629 -8.54492 C 81.1035 -13.7695 72.5098 -17.4805 61.5234 -17.4805 Z M 61.5234 -24.5605 C 71.1426 -24.5605 78.5645 -32.8125 78.5645 -43.2129 C 78.5645 -53.0273 71.0449 -61.4746 61.5234 -61.4746 C 51.9531 -61.4746 44.3848 -53.0273 44.4336 -43.2129 C 44.4824 -32.8125 51.8555 -24.6094 61.5234 -24.5605 Z"/>
  </g>
  <g id="Bold-M" transform="matrix(1 0 0 1 2279.5 1126)">
   <path d="M 60.498 16.5039 C 88.8672 16.5039 112.207 -6.78711 112.207 -35.2051 C 112.207 -63.623 88.8672 -86.9629 60.4492 -86.9629 C 32.0312 -86.9629 8.74023 -63.623 8.74023 -35.2051 C 8.74023 -6.78711 32.0801 16.5039 60.498 16.5039 Z M 60.498 -17.8711 C 48.1934 -17.8711 38.6719 -13.623 33.1055 -8.1543 C 26.2695 -15.0879 22.0703 -24.6582 22.0703 -35.2051 C 22.0703 -56.4941 39.1602 -73.6816 60.4492 -73.6816 C 81.7383 -73.6816 98.9258 -56.4941 98.9258 -35.2051 C 98.9258 -24.6582 94.7266 -15.0879 87.8418 -8.1543 C 82.3242 -13.623 72.7539 -17.8711 60.498 -17.8711 Z M 60.498 -25.3906 C 70.0684 -25.3418 77.4414 -33.5449 77.4414 -43.9453 C 77.4414 -53.7598 69.9707 -62.1094 60.498 -62.1094 C 51.0254 -62.1094 43.457 -53.7598 43.5547 -43.9453 C 43.5547 -33.5449 50.9277 -25.4395 60.498 -25.3906 Z"/>
  </g>
  <g id="Semibold-M" transform="matrix(1 0 0 1 1983.5 1126)">
   <path d="M 59.7656 15.8203 C 87.7441 15.8203 110.791 -7.22656 110.791 -35.2051 C 110.791 -63.1836 87.6953 -86.2793 59.7656 -86.2793 C 31.7871 -86.2793 8.74023 -63.1836 8.74023 -35.2051 C 8.74023 -7.22656 31.7871 15.8203 59.7656 15.8203 Z M 59.7656 -18.1641 C 46.6309 -18.1641 36.4258 -13.5254 31.1035 -7.91016 C 24.3652 -14.9902 20.2637 -24.6094 20.2637 -35.2051 C 20.2637 -57.1289 37.793 -74.8047 59.7656 -74.8047 C 81.6895 -74.8047 99.3164 -57.1289 99.3652 -35.2051 C 99.3652 -24.6094 95.2148 -14.9902 88.4766 -7.91016 C 83.1543 -13.5254 72.9492 -18.1641 59.7656 -18.1641 Z M 59.7656 -25.9277 C 69.2871 -25.8789 76.6602 -33.9844 76.6602 -44.4336 C 76.6602 -54.2969 69.1895 -62.5977 59.7656 -62.5977 C 50.3418 -62.5977 42.8223 -54.2969 42.9199 -44.4336 C 42.9199 -33.9844 50.293 -25.9766 59.7656 -25.9277 Z"/>
  </g>
  <g id="Medium-M" transform="matrix(1 0 0 1 1687.3 1126)">
   <path d="M 59.2285 15.2832 C 86.9141 15.2832 109.766 -7.56836 109.766 -35.2051 C 109.766 -62.8906 86.8652 -85.7422 59.1797 -85.7422 C 31.543 -85.7422 8.74023 -62.8906 8.74023 -35.2051 C 8.74023 -7.56836 31.5918 15.2832 59.2285 15.2832 Z M 59.2285 -18.3594 C 45.4102 -18.3594 34.7656 -13.4277 29.5898 -7.76367 C 22.9492 -14.9414 18.8965 -24.5605 18.8965 -35.2051 C 18.8965 -57.6172 36.8164 -75.6348 59.1797 -75.6348 C 81.5918 -75.6348 99.6094 -57.6172 99.6582 -35.2051 C 99.6582 -24.5605 95.6055 -14.8926 88.916 -7.71484 C 83.7402 -13.4277 73.0957 -18.3594 59.2285 -18.3594 Z M 59.2285 -26.3672 C 68.7012 -26.2695 76.0742 -34.375 76.0742 -44.8242 C 76.0742 -54.6875 68.6523 -62.9395 59.2285 -62.9395 C 49.8535 -62.9395 42.3828 -54.6875 42.4316 -44.8242 C 42.4805 -34.375 49.8047 -26.416 59.2285 -26.3672 Z"/>
  </g>
  <g id="Regular-M" transform="matrix(1 0 0 1 1391.3 1126)">
   <path d="M 58.5449 14.5508 C 85.791 14.5508 108.35 -8.00781 108.35 -35.2539 C 108.35 -62.4512 85.7422 -85.0586 58.4961 -85.0586 C 31.2988 -85.0586 8.74023 -62.4512 8.74023 -35.2539 C 8.74023 -8.00781 31.3477 14.5508 58.5449 14.5508 Z M 58.5449 -18.6035 C 43.8477 -18.6035 32.5684 -13.3789 27.5879 -7.51953 C 21.0449 -14.8438 17.0898 -24.5605 17.0898 -35.2539 C 17.0898 -58.252 35.4492 -76.7578 58.4961 -76.7578 C 81.543 -76.7578 100 -58.252 100.049 -35.2539 C 100.098 -24.5117 96.0938 -14.7949 89.502 -7.4707 C 84.5703 -13.3301 73.2422 -18.6035 58.5449 -18.6035 Z M 58.5449 -26.9043 C 67.9199 -26.8066 75.293 -34.8145 75.293 -45.3125 C 75.293 -55.1758 67.9199 -63.3789 58.5449 -63.3789 C 49.1699 -63.3789 41.748 -55.1758 41.7969 -45.3125 C 41.8457 -34.8145 49.1699 -27.002 58.5449 -26.9043 Z"/>
  </g>
  <g id="Light-M" transform="matrix(1 0 0 1 1095.42 1126)">
   <path d="M 57.7148 13.7695 C 84.5215 13.7695 106.689 -8.39844 106.689 -35.2051 C 106.689 -62.0117 84.5215 -84.1797 57.666 -84.1797 C 30.8594 -84.1797 8.74023 -62.0117 8.74023 -35.2051 C 8.74023 -8.39844 30.9082 13.7695 57.7148 13.7695 Z M 57.7148 -18.8477 C 42.334 -18.8477 30.6641 -12.6953 26.123 -6.49414 C 19.2871 -14.0625 15.0879 -24.1211 15.0879 -35.2051 C 15.0879 -58.8379 34.082 -77.832 57.666 -77.832 C 81.2988 -77.832 100.342 -58.8379 100.391 -35.2051 C 100.391 -24.1211 96.1914 -14.0137 89.3066 -6.44531 C 84.7656 -12.6953 73.0957 -18.8477 57.7148 -18.8477 Z M 57.7148 -27.1973 C 67.0898 -27.1484 74.3652 -35.1562 74.3652 -45.6055 C 74.3652 -55.4199 66.9922 -63.623 57.7148 -63.623 C 48.4375 -63.623 41.0156 -55.4199 41.0645 -45.6055 C 41.1133 -35.1562 48.3398 -27.2461 57.7148 -27.1973 Z"/>
  </g>
  <g id="Thin-M" transform="matrix(1 0 0 1 799.806 1126)">
   <path d="M 56.6406 12.7441 C 82.9102 12.7441 104.492 -8.83789 104.492 -35.1562 C 104.492 -61.4746 82.9102 -83.0566 56.5918 -83.0566 C 30.3223 -83.0566 8.74023 -61.4746 8.74023 -35.1562 C 8.74023 -8.83789 30.3223 12.7441 56.6406 12.7441 Z M 56.6406 -19.1406 C 40.2832 -19.1406 28.125 -11.5723 24.2676 -5.07812 C 16.9434 -12.9883 12.4512 -23.5352 12.4512 -35.1562 C 12.4512 -59.5215 32.2266 -79.2969 56.5918 -79.2969 C 81.0059 -79.2969 100.781 -59.5215 100.781 -35.1562 C 100.781 -23.5352 96.2891 -12.9395 88.916 -5.0293 C 85.1074 -11.5723 72.998 -19.1406 56.6406 -19.1406 Z M 56.6406 -27.5879 C 65.9668 -27.5879 73.1445 -35.5469 73.1445 -45.9473 C 73.1445 -55.7129 65.8203 -63.916 56.6406 -63.916 C 47.4121 -63.916 40.0391 -55.7129 40.0879 -45.9473 C 40.1367 -35.5469 47.2656 -27.6367 56.6406 -27.5879 Z"/>
  </g>
  <g id="Ultralight-M" transform="matrix(1 0 0 1 503.656 1126)">
   <path d="M 56.0547 12.207 C 82.0801 12.207 103.369 -9.08203 103.369 -35.1562 C 103.369 -61.1816 82.0801 -82.4707 56.0547 -82.4707 C 30.0293 -82.4707 8.74023 -61.1816 8.74023 -35.1562 C 8.74023 -9.08203 30.0293 12.207 56.0547 12.207 Z M 56.0547 -19.3359 C 39.209 -19.3359 26.8066 -10.8398 23.3398 -4.3457 C 15.7715 -12.4023 11.1328 -23.2422 11.1328 -35.1562 C 11.1328 -59.9121 31.2988 -80.0781 56.0547 -80.0781 C 80.8594 -80.0781 100.977 -59.9121 100.977 -35.1562 C 100.977 -23.1934 96.3379 -12.3535 88.7207 -4.29688 C 85.4492 -10.791 73.0469 -19.3359 56.0547 -19.3359 Z M 56.0547 -27.7832 C 65.4297 -27.7832 72.5098 -35.791 72.5098 -46.1426 C 72.5098 -55.8594 65.2344 -64.0625 56.0547 -64.0625 C 46.9238 -64.0625 39.5508 -55.8594 39.5996 -46.1426 C 39.5996 -35.791 46.7285 -27.7832 56.0547 -27.7832 Z"/>
  </g>
  <g id="Black-S" transform="matrix(1 0 0 1 2884.57 696)">
   <path d="M 48.8281 6.78711 C 71.9727 6.78711 90.8203 -12.0605 90.8203 -35.2051 C 90.8203 -58.3496 71.9727 -77.1973 48.8281 -77.1973 C 25.6836 -77.1973 6.83594 -58.3496 6.83594 -35.2051 C 6.83594 -12.0605 25.6836 6.78711 48.8281 6.78711 Z M 20.9961 -35.2051 C 20.9961 -50.5859 33.4473 -63.0371 48.8281 -63.0371 C 64.209 -63.0371 76.6602 -50.5859 76.6602 -35.2051 C 76.6602 -27.002 73.1445 -19.6777 67.5293 -14.5508 C 62.7441 -18.5059 56.6406 -21.0938 48.8281 -21.0938 C 41.0156 -21.0938 34.9121 -18.5059 30.127 -14.5508 C 24.5117 -19.6777 20.9961 -27.002 20.9961 -35.2051 Z M 48.8281 -26.3672 C 56.4453 -26.3672 62.2559 -32.9102 62.2559 -41.0156 C 62.2559 -48.6816 56.3477 -55.3711 48.8281 -55.3711 C 41.3086 -55.3711 35.3516 -48.6816 35.4004 -41.0156 C 35.4004 -32.9102 41.2109 -26.3672 48.8281 -26.3672 Z"/>
  </g>
  <g id="Heavy-S" transform="matrix(1 0 0 1 2588.47 696)">
   <path d="M 48.2422 6.15234 C 70.9961 6.15234 89.5996 -12.4512 89.5996 -35.2051 C 89.5996 -57.959 70.9961 -76.6113 48.1934 -76.6113 C 25.4395 -76.6113 6.83594 -57.959 6.83594 -35.2051 C 6.83594 -12.4512 25.4395 6.15234 48.2422 6.15234 Z M 48.2422 -21.3379 C 39.5996 -21.3379 32.8613 -18.457 28.2715 -14.4043 C 22.8027 -19.6289 19.4336 -27.002 19.4336 -35.2051 C 19.4336 -51.1719 32.2754 -64.0137 48.1934 -64.0137 C 64.1602 -64.0137 77.002 -51.1719 77.0508 -35.2051 C 77.0508 -27.002 73.6328 -19.6289 68.1641 -14.4043 C 63.623 -18.457 56.8359 -21.3379 48.2422 -21.3379 Z M 48.2422 -26.9043 C 55.7617 -26.8555 61.5723 -33.3496 61.5723 -41.5039 C 61.5723 -49.1699 55.7129 -55.8105 48.2422 -55.8105 C 40.7227 -55.8105 34.8145 -49.1699 34.8633 -41.5039 C 34.8633 -33.3496 40.6738 -26.9043 48.2422 -26.9043 Z"/>
  </g>
  <g id="Bold-S" transform="matrix(1 0 0 1 2292.44 696)">
   <path d="M 47.5586 5.46875 C 69.873 5.46875 88.2324 -12.8906 88.2324 -35.2051 C 88.2324 -57.5684 69.873 -75.9277 47.5098 -75.9277 C 25.1953 -75.9277 6.83594 -57.5684 6.83594 -35.2051 C 6.83594 -12.8906 25.1953 5.46875 47.5586 5.46875 Z M 47.5586 -21.582 C 37.9883 -21.582 30.5664 -18.4082 26.2207 -14.209 C 20.9473 -19.6289 17.6758 -27.0508 17.6758 -35.2051 C 17.6758 -51.8066 30.957 -65.1367 47.5098 -65.1367 C 64.1113 -65.1367 77.4414 -51.8066 77.4414 -35.2051 C 77.4414 -27.002 74.1699 -19.6289 68.8965 -14.209 C 64.502 -18.4082 57.0801 -21.582 47.5586 -21.582 Z M 47.5586 -27.4414 C 55.0293 -27.4414 60.8398 -33.8379 60.8398 -41.9922 C 60.8398 -49.707 54.9805 -56.25 47.5586 -56.25 C 40.0879 -56.25 34.1797 -49.707 34.2285 -41.9922 C 34.2773 -33.8379 40.0391 -27.4902 47.5586 -27.4414 Z"/>
  </g>
  <g id="Semibold-S" transform="matrix(1 0 0 1 1996.2 696)">
   <path d="M 47.0703 4.98047 C 69.0918 4.98047 87.3047 -13.1836 87.3047 -35.2539 C 87.3047 -57.2754 69.0918 -75.4883 47.0215 -75.4883 C 25 -75.4883 6.83594 -57.2754 6.83594 -35.2539 C 6.83594 -13.1836 25.0488 4.98047 47.0703 4.98047 Z M 47.0703 -21.7773 C 36.9141 -21.7773 29.0527 -18.3594 24.8047 -14.1113 C 19.6289 -19.6289 16.4551 -27.0508 16.4551 -35.2539 C 16.4551 -52.2461 30.0293 -65.8691 47.0215 -65.8691 C 64.0625 -65.8691 77.6855 -52.2461 77.7344 -35.2539 C 77.7344 -27.002 74.5605 -19.5801 69.3359 -14.1113 C 65.1367 -18.3594 57.2266 -21.7773 47.0703 -21.7773 Z M 47.0703 -27.8809 C 54.541 -27.7832 60.3027 -34.1797 60.3027 -42.3828 C 60.3027 -50.0977 54.4922 -56.5918 47.0703 -56.5918 C 39.6484 -56.5918 33.7891 -50.0977 33.8379 -42.3828 C 33.8379 -34.1797 39.6484 -27.9297 47.0703 -27.8809 Z"/>
  </g>
  <g id="Medium-S" transform="matrix(1 0 0 1 1699.83 696)">
   <path d="M 46.7285 4.63867 C 68.5547 4.63867 86.6211 -13.4277 86.6211 -35.2539 C 86.6211 -57.0312 68.5059 -75.1465 46.6797 -75.1465 C 24.8535 -75.1465 6.83594 -57.0312 6.83594 -35.2539 C 6.83594 -13.4277 24.9023 4.63867 46.7285 4.63867 Z M 46.7285 -21.9238 C 36.1328 -21.9238 27.8809 -18.3594 23.7305 -14.0625 C 18.6523 -19.6289 15.5273 -27.0508 15.5273 -35.2539 C 15.5273 -52.5879 29.3457 -66.4551 46.6797 -66.4551 C 64.0137 -66.4551 77.8809 -52.5879 77.9297 -35.2539 C 77.9785 -27.0508 74.8535 -19.5801 69.7266 -14.0625 C 65.5762 -18.3594 57.3242 -21.9238 46.7285 -21.9238 Z M 46.7285 -28.1738 C 54.1504 -28.0762 59.9121 -34.4238 59.9121 -42.627 C 59.9121 -50.3906 54.1016 -56.8359 46.7285 -56.8359 C 39.3066 -56.8359 33.4473 -50.3906 33.4961 -42.627 C 33.5449 -34.4238 39.3066 -28.2227 46.7285 -28.1738 Z"/>
  </g>
  <g id="Regular-S" transform="matrix(1 0 0 1 1403.58 696)">
   <path d="M 46.2402 4.15039 C 67.7734 4.15039 85.6934 -13.7207 85.6934 -35.2539 C 85.6934 -56.7871 67.7246 -74.6582 46.1914 -74.6582 C 24.707 -74.6582 6.83594 -56.7871 6.83594 -35.2539 C 6.83594 -13.7207 24.7559 4.15039 46.2402 4.15039 Z M 46.2402 -22.1191 C 35.0586 -22.1191 26.416 -18.3594 22.3633 -13.9648 C 17.334 -19.6289 14.3555 -27.0508 14.3555 -35.2539 C 14.3555 -53.0273 28.4668 -67.2363 46.1914 -67.2363 C 63.9648 -67.2363 78.1738 -53.0273 78.2227 -35.2539 C 78.2227 -27.0508 75.1953 -19.5801 70.2148 -13.9648 C 66.1621 -18.3594 57.4707 -22.1191 46.2402 -22.1191 Z M 46.2402 -28.5645 C 53.6133 -28.4668 59.4238 -34.7656 59.4238 -43.0176 C 59.4238 -50.7812 53.6133 -57.1777 46.2402 -57.1777 C 38.916 -57.1777 33.0566 -50.7812 33.1055 -43.0176 C 33.1543 -34.7656 38.8672 -28.6621 46.2402 -28.5645 Z"/>
  </g>
  <g id="Light-S" transform="matrix(1 0 0 1 1107.6 696)">
   <path d="M 45.5078 3.4668 C 66.6992 3.4668 84.2285 -14.0625 84.2285 -35.2051 C 84.2285 -56.3965 66.6504 -73.9258 45.5078 -73.9258 C 24.3164 -73.9258 6.83594 -56.3965 6.83594 -35.2051 C 6.83594 -14.0625 24.3652 3.4668 45.5078 3.4668 Z M 45.5078 -22.3145 C 33.7402 -22.3145 24.7559 -17.8223 21.0449 -13.1348 C 15.7715 -18.9453 12.5977 -26.709 12.5977 -35.2051 C 12.5977 -53.5156 27.1973 -68.2129 45.5078 -68.2129 C 63.7695 -68.2129 78.4668 -53.5156 78.5156 -35.2051 C 78.5156 -26.6602 75.293 -18.9453 70.0195 -13.0859 C 66.3086 -17.8223 57.3242 -22.3145 45.5078 -22.3145 Z M 45.5078 -28.8086 C 52.8809 -28.7598 58.5938 -35.0586 58.5938 -43.2617 C 58.5938 -50.9766 52.832 -57.373 45.5078 -57.373 C 38.2324 -57.373 32.373 -50.9766 32.4219 -43.2617 C 32.4707 -35.0586 38.1836 -28.9062 45.5078 -28.8086 Z"/>
  </g>
  <g id="Thin-S" transform="matrix(1 0 0 1 811.867 696)">
   <path d="M 44.5801 2.53906 C 65.2832 2.53906 82.2754 -14.4531 82.2754 -35.2051 C 82.2754 -55.9082 65.2344 -72.9004 44.5312 -72.9004 C 23.8281 -72.9004 6.83594 -55.9082 6.83594 -35.2051 C 6.83594 -14.4531 23.877 2.53906 44.5801 2.53906 Z M 44.5801 -22.5586 C 31.9336 -22.5586 22.5098 -16.8945 19.3359 -11.9141 C 13.7207 -18.0176 10.2539 -26.1719 10.2539 -35.2051 C 10.2539 -54.1504 25.5859 -69.4824 44.5312 -69.4824 C 63.5254 -69.4824 78.8574 -54.1504 78.8574 -35.2051 C 78.8574 -26.1719 75.3906 -17.9688 69.7266 -11.8652 C 66.6016 -16.9434 57.1777 -22.5586 44.5801 -22.5586 Z M 44.5801 -29.1504 C 51.9043 -29.1504 57.5195 -35.4004 57.5195 -43.5547 C 57.5195 -51.2207 51.8066 -57.6172 44.5801 -57.6172 C 37.3535 -57.6172 31.543 -51.2207 31.5918 -43.5547 C 31.5918 -35.4004 37.207 -29.1992 44.5801 -29.1504 Z"/>
  </g>
  <g id="Ultralight-S" transform="matrix(1 0 0 1 515.644 696)">
   <path d="M 44.043 2.05078 C 64.502 2.05078 81.2988 -14.6973 81.2988 -35.1562 C 81.2988 -55.6152 64.502 -72.3633 44.043 -72.3633 C 23.584 -72.3633 6.83594 -55.6152 6.83594 -35.1562 C 6.83594 -14.6973 23.584 2.05078 44.043 2.05078 Z M 44.043 -22.7051 C 31.0059 -22.7051 21.3379 -16.3086 18.5059 -11.2305 C 12.6465 -17.4805 9.08203 -25.9277 9.08203 -35.1562 C 9.08203 -54.4434 24.7559 -70.166 44.043 -70.166 C 63.3789 -70.166 79.0527 -54.4434 79.0527 -35.1562 C 79.0527 -25.8789 75.4395 -17.4805 69.5312 -11.1816 C 66.748 -16.3574 57.1289 -22.7051 44.043 -22.7051 Z M 44.043 -29.3457 C 51.3672 -29.3457 56.9824 -35.5957 56.9824 -43.7012 C 56.9824 -51.3184 51.2695 -57.7637 44.043 -57.7637 C 36.8652 -57.7637 31.1035 -51.3184 31.1523 -43.7012 C 31.1523 -35.5957 36.7188 -29.3457 44.043 -29.3457 Z"/>
  </g>
 </g>
</svg>
